<svg width="137" height="201" viewBox="0 0 137 201" fill="none" xmlns="http://www.w3.org/2000/svg">
<g clip-path="url(#clip0_3849_120496)">
<path d="M75.7805 145.006C72.8155 143.555 69.9798 141.868 67.3005 139.922C70.9233 140.089 74.0338 142.111 75.7805 145.006Z" fill="#FFC2BD"/>
<path d="M129.9 98.5622C128.283 106.67 123.388 112.455 115.749 115.63C108.563 118.617 101.333 118.385 94.4438 114.697C87.5811 111.026 83.2144 105.339 81.8289 97.5649C81.5702 96.1201 81.6025 94.6214 81.4462 93.1551C80.713 86.2601 75.3005 82.5565 69.5484 81.915C63.8286 81.2788 59.4242 83.7695 56.3459 88.5135C55.6235 89.624 55.1761 91.085 55.106 92.4111C54.6316 101.635 56.9228 110.196 61.7854 118.007C57.8985 118.606 54.1734 119.716 50.6908 121.264C47.5102 115.587 45.3484 109.366 44.2271 102.6C43.3699 97.4193 43.1597 92.147 45.0357 87.0525C48.2218 78.4216 54.3782 73.2517 63.3596 71.4026C70.26 69.974 76.6967 71.2409 82.4543 75.2302C87.9207 79.0254 91.6459 84.1199 92.6162 90.9017C92.8373 92.4435 92.7564 94.0338 92.9882 95.581C93.7375 100.616 96.6541 104.018 101.355 105.721C106.045 107.414 110.525 106.783 114.595 103.743C118.735 100.649 119.797 96.3627 119.42 91.4947C118.935 85.2466 117.312 79.3165 114.503 73.7153C109.991 64.7394 103.134 58.0546 94.4707 53.1057C87.8991 49.3536 80.837 47.1972 73.349 46.394C71.8449 46.2323 70.3031 46.3724 68.7775 46.3724C56.5562 46.4749 45.2999 49.6609 35.5746 57.2837C27.2456 63.8122 21.5527 72.1735 18.7872 82.4487C17.337 87.8342 17.2238 93.306 17.5796 98.8479C18.054 106.255 19.6282 113.382 22.232 120.315C23.2293 122.972 21.8708 126.126 19.4988 127.204C16.8734 128.39 13.5364 127.533 12.2641 124.924C11.035 122.406 10.1617 119.684 9.37997 116.983C7.43383 110.282 6.47424 103.441 6.28556 96.4382C6.05375 87.845 7.2128 79.5645 10.6522 71.6506C14.8841 61.9091 21.488 54.0761 29.9357 47.7579C39.1757 40.8413 49.6342 37.1054 61.0576 35.7846C74.0121 34.2859 86.2226 36.6256 97.7754 42.5395C102.746 45.084 107.22 48.3401 111.35 52.1138C117.258 57.5101 121.878 63.8445 125.361 70.9983C128.013 76.4485 129.733 82.2169 130.116 88.2763C130.326 91.6995 130.563 95.2468 129.9 98.5622Z" fill="#FFC2BD"/>
<path d="M111.857 94.5415C111.884 98.0564 109.679 100.45 106.482 100.498C102.919 100.552 100.568 98.3259 100.536 94.6601C100.487 89.3015 99.0209 84.3633 96.1529 79.8943C90.8266 71.603 83.1283 66.7134 73.4678 65.2902C61.9365 63.5866 52.001 67.1608 44.0062 75.6516C38.0492 81.9752 35.7149 89.5656 36.4212 98.2612C36.9387 104.623 38.1031 110.784 40.4644 116.704C41.5803 119.507 42.8741 122.186 44.3674 124.736C41.1544 126.844 38.2325 129.372 35.6826 132.235C31.8604 126.197 28.9655 119.604 27.1272 112.364C25.4721 105.841 24.7659 99.2208 25.1756 92.4983C25.7309 83.2798 29.0679 75.2095 35.1381 68.2013C42.8849 59.2739 56.5887 53.0635 67.3221 53.4894C79.7051 53.5002 89.5005 57.3439 98.0074 64.6163C105.711 71.204 110.088 79.6139 111.539 89.5872C111.776 91.2206 111.846 92.8918 111.857 94.5415Z" fill="#F56D62"/>
<path d="M136.585 54.5244C136.342 57.7266 133.205 61.0151 130.224 60.4545C128.639 60.158 127.07 58.821 125.879 57.5865C123.496 55.1066 121.533 52.2171 119.113 49.775C114.687 45.3005 109.733 41.4837 104.245 38.3354C95.2849 33.2032 85.5758 30.4538 75.4084 29.4511C62.0281 28.1303 49.1599 30.3244 36.9117 35.9957C29.208 39.5591 22.437 44.4164 16.5932 50.5297C14.5554 52.6591 12.7979 55.0581 10.9327 57.3493C9.77901 58.7671 8.55527 60.0987 6.61452 60.2927C2.03222 60.7617 -1.02984 56.5137 1.09419 52.3896C2.21012 50.2278 3.80045 48.2709 5.39078 46.4003C11.0028 39.7909 17.4503 34.1358 24.933 29.7153C34.7499 23.9146 45.2838 20.2434 56.621 18.7986C62.109 18.0978 67.6131 17.8067 73.1119 18.1139C79.6511 18.4805 86.0987 19.5749 92.4169 21.4024C102.083 24.2057 110.962 28.5562 118.973 34.6588C124.606 38.9446 129.507 43.9582 133.76 49.6133C134.272 50.2925 134.887 50.9125 135.302 51.6456C135.814 52.5567 136.159 53.5594 136.574 54.519L136.585 54.5244Z" fill="#FFC2BD"/>
<path d="M68.3031 -0.00242155C84.3035 0.105397 99.3604 3.87367 113.447 11.4695C116.342 13.0275 117.323 16.0303 115.878 18.8821C114.407 21.7986 111.393 22.7959 108.374 21.3026C101.808 18.0519 95.0584 15.2701 87.9154 13.5666C80.1524 11.7121 72.2601 10.952 64.303 11.3833C52.2974 12.0356 40.8794 15.0383 30.1568 20.5587C29.4775 20.9091 28.8036 21.2703 28.1028 21.5668C25.3642 22.7312 22.5879 21.7285 21.1269 19.0654C19.7738 16.6017 20.3668 13.3294 22.7819 11.9278C25.72 10.2242 28.7982 8.72553 31.9142 7.3724C40.2378 3.76046 48.9658 1.58252 57.9795 0.633711C61.4027 0.272517 64.8529 0.197044 68.2924 -0.0078125L68.3031 -0.00242155Z" fill="#FFC2BD"/>
<path d="M114.175 133.744C112.617 134.127 110.999 134.343 109.398 134.461C107.797 134.585 106.175 134.488 104.563 134.488C104.115 134.505 103.668 134.51 103.22 134.51C95.4735 124.553 83.5487 118.008 70.0983 117.528C66.1683 112.202 63.6669 106.04 62.6588 99.0698C62.4324 97.4795 62.3353 95.8514 62.3623 94.2449C62.4162 91.1559 64.4324 88.924 67.2842 88.6167C70.0228 88.3202 72.6914 90.1909 73.3113 93.0697C73.9474 96.0023 74.2547 99.0051 74.8963 101.932C76.2009 107.9 79.4893 112.693 84.1202 116.558C89.8346 121.324 96.4762 123.502 103.9 123.308C106.676 123.232 109.447 123.07 112.223 123.07C114.509 123.065 116.439 123.922 117.62 126.008C119.339 129.043 117.657 132.882 114.175 133.744Z" fill="#FFC2BD"/>
<path d="M77.1659 151.783C76.6699 155.324 75.0365 158.252 72.1739 160.408C68.7183 163.001 64.578 162.953 61.2303 160.214C57.8933 157.481 56.2005 153.907 56.4377 149.545C56.6911 144.877 60.4701 140.78 65.0902 140.079C65.6562 139.993 66.2331 139.966 66.8045 139.906C66.9716 139.906 67.1333 139.912 67.3005 139.922C70.9232 140.09 74.0338 142.111 75.7804 145.006C76.9557 146.963 77.5109 149.324 77.1659 151.783Z" fill="#7E3126"/>
<path d="M86.3199 176.063C86.3576 176.979 85.8993 177.718 85.2794 178.349C84.1042 179.556 82.6217 180.257 81.0798 180.823C78.3412 181.831 75.5056 182.451 72.5999 182.689C70.6807 182.845 68.7615 182.963 66.837 183.098C62.2007 182.98 57.6238 182.565 53.2086 181.06C51.7315 180.559 50.3137 179.928 49.0576 178.98C47.7153 177.966 47.1492 176.683 47.3433 174.974C47.9147 170.009 50.3407 166.305 54.6804 163.858C55.9418 163.146 57.3058 162.704 58.7236 162.445C58.8691 162.419 59.0686 162.462 59.1872 162.548C61.5053 164.235 64.1091 164.888 66.9502 164.871C69.6888 164.85 72.1848 164.176 74.4274 162.58C74.5676 162.478 74.7994 162.429 74.9719 162.456C80.5785 163.47 85.0638 167.977 86.0503 173.599C86.1959 174.413 86.2821 175.238 86.3199 176.063Z" fill="#7E3126"/>
<path d="M95.3929 133.802C90.0235 128.583 83.1446 124.918 75.4679 123.521C73.2091 123.106 70.8802 122.891 68.5028 122.891C67.4516 122.891 66.4057 122.934 65.376 123.02C61.225 123.349 57.2573 124.341 53.5807 125.883C51.3704 126.81 49.2625 127.937 47.284 129.247C44.098 131.338 41.2462 133.894 38.8256 136.81C33.246 143.5 29.8928 152.11 29.8928 161.501C29.8928 182.827 47.1762 200.111 68.5028 200.111C89.8294 200.111 107.113 182.827 107.113 161.501C107.113 150.632 102.622 140.816 95.3929 133.802ZM56.4379 149.543C56.6912 144.875 60.4703 140.778 65.0903 140.077C65.6564 139.991 66.2332 139.964 66.8047 139.904C66.9718 139.904 67.1335 139.91 67.3006 139.921C70.9233 140.088 74.0339 142.109 75.7806 145.004C76.9558 146.961 77.5111 149.322 77.1661 151.781C76.6701 155.323 75.0366 158.25 72.174 160.406C68.7184 162.999 64.5782 162.951 61.2304 160.212C57.8934 157.479 56.2007 153.905 56.4379 149.543ZM85.2794 178.347C84.1042 179.555 82.6217 180.256 81.0799 180.822C78.3413 181.83 75.5056 182.45 72.5999 182.687C70.6807 182.843 68.7616 182.962 66.837 183.097C62.2008 182.978 57.6239 182.563 53.2087 181.059C51.7316 180.558 50.3137 179.927 49.0576 178.978C47.7153 177.965 47.1493 176.682 47.3433 174.973C47.9148 170.008 50.3407 166.304 54.6804 163.856C55.9419 163.145 57.3058 162.703 58.7236 162.444C58.8692 162.417 59.0686 162.46 59.1872 162.546C61.5053 164.234 64.1092 164.886 66.9502 164.87C69.6888 164.848 72.1848 164.175 74.4275 162.579C74.5676 162.476 74.7994 162.428 74.9719 162.455C80.5785 163.468 85.0638 167.975 86.0503 173.598C86.1959 174.412 86.2822 175.237 86.3199 176.062C86.3576 176.978 85.8994 177.717 85.2794 178.347Z" fill="#F56D62"/>
<path d="M77.1659 151.783C76.6699 155.324 75.0365 158.252 72.1739 160.408C68.7183 163.001 64.578 162.953 61.2303 160.214C57.8933 157.481 56.2005 153.907 56.4377 149.545C56.6911 144.877 60.4701 140.78 65.0902 140.079C65.6562 139.993 66.2331 139.966 66.8045 139.906C66.9716 139.906 67.1333 139.912 67.3005 139.922C70.9232 140.09 74.0338 142.111 75.7804 145.006C76.9557 146.963 77.5109 149.324 77.1659 151.783Z" fill="#7E3126"/>
<path d="M86.3199 176.063C86.3576 176.979 85.8993 177.718 85.2794 178.349C84.1042 179.556 82.6217 180.257 81.0798 180.823C78.3412 181.831 75.5056 182.451 72.5999 182.689C70.6807 182.845 68.7615 182.963 66.837 183.098C62.2007 182.98 57.6238 182.565 53.2086 181.06C51.7315 180.559 50.3137 179.928 49.0576 178.98C47.7153 177.966 47.1492 176.683 47.3433 174.974C47.9147 170.009 50.3407 166.305 54.6804 163.858C55.9418 163.146 57.3058 162.704 58.7236 162.445C58.8691 162.419 59.0686 162.462 59.1872 162.548C61.5053 164.235 64.1091 164.888 66.9502 164.871C69.6888 164.85 72.1848 164.176 74.4274 162.58C74.5676 162.478 74.7994 162.429 74.9719 162.456C80.5785 163.47 85.0638 167.977 86.0503 173.599C86.1959 174.413 86.2821 175.238 86.3199 176.063Z" fill="#7E3126"/>
<path d="M86.3199 176.063C86.3576 176.979 85.8993 177.718 85.2794 178.349C84.1042 179.556 82.6217 180.257 81.0798 180.823C78.3412 181.831 75.5056 182.451 72.5999 182.689C70.6807 182.845 68.7615 182.963 66.837 183.098C62.2007 182.98 57.6238 182.565 53.2086 181.06C51.7315 180.559 50.3137 179.928 49.0576 178.98C47.7153 177.966 47.1492 176.683 47.3433 174.974C47.9147 170.009 50.3407 166.305 54.6804 163.858C55.9418 163.146 57.3058 162.704 58.7236 162.445C58.8691 162.419 59.0686 162.462 59.1872 162.548C61.5053 164.235 64.1091 164.888 66.9502 164.871C69.6888 164.85 72.1848 164.176 74.4274 162.58C74.5676 162.478 74.7994 162.429 74.9719 162.456C80.5785 163.47 85.0638 167.977 86.0503 173.599C86.1959 174.413 86.2821 175.238 86.3199 176.063Z" fill="white"/>
<path d="M77.1659 151.783C76.6699 155.324 75.0365 158.252 72.1739 160.408C68.7183 163.001 64.578 162.953 61.2303 160.214C57.8933 157.481 56.2005 153.907 56.4377 149.545C56.6911 144.877 60.4701 140.78 65.0902 140.079C65.6562 139.993 66.2331 139.966 66.8045 139.906C66.9716 139.906 67.1333 139.912 67.3005 139.922C70.9232 140.09 74.0338 142.111 75.7804 145.006C76.9557 146.963 77.5109 149.324 77.1659 151.783Z" fill="white"/>
</g>
<defs>
<clipPath id="clip0_3849_120496">
<rect width="136.17" height="200.112" fill="white" transform="translate(0.415039)"/>
</clipPath>
</defs>
</svg>
