<svg width="138" height="201" viewBox="0 0 138 201" fill="none" xmlns="http://www.w3.org/2000/svg">
<g clip-path="url(#clip0_3849_120666)">
<path d="M76.2805 145.006C73.3155 143.555 70.4798 141.868 67.8005 139.922C71.4233 140.089 74.5338 142.111 76.2805 145.006Z" fill="#AFF4C6"/>
<path d="M130.4 98.5622C128.783 106.67 123.888 112.455 116.249 115.63C109.063 118.617 101.833 118.385 94.9438 114.697C88.0811 111.026 83.7144 105.339 82.3289 97.5649C82.0702 96.1201 82.1025 94.6214 81.9462 93.1551C81.213 86.2601 75.8005 82.5565 70.0484 81.915C64.3286 81.2788 59.9242 83.7695 56.8459 88.5135C56.1235 89.624 55.6761 91.085 55.606 92.4111C55.1316 101.635 57.4228 110.196 62.2854 118.007C58.3985 118.606 54.6734 119.716 51.1908 121.264C48.0102 115.587 45.8484 109.366 44.7271 102.6C43.8699 97.4193 43.6597 92.147 45.5357 87.0525C48.7218 78.4216 54.8782 73.2517 63.8596 71.4026C70.76 69.974 77.1967 71.2409 82.9543 75.2302C88.4207 79.0254 92.1459 84.1199 93.1162 90.9017C93.3373 92.4435 93.2564 94.0338 93.4882 95.581C94.2375 100.616 97.1541 104.018 101.855 105.721C106.545 107.414 111.025 106.783 115.095 103.743C119.235 100.649 120.297 96.3627 119.92 91.4947C119.435 85.2466 117.812 79.3165 115.003 73.7153C110.491 64.7394 103.634 58.0546 94.9707 53.1057C88.3991 49.3536 81.337 47.1972 73.849 46.394C72.3449 46.2323 70.8031 46.3724 69.2775 46.3724C57.0562 46.4749 45.7999 49.6609 36.0746 57.2837C27.7456 63.8122 22.0527 72.1735 19.2872 82.4487C17.837 87.8342 17.7238 93.306 18.0796 98.8479C18.554 106.255 20.1282 113.382 22.732 120.315C23.7293 122.972 22.3708 126.126 19.9988 127.204C17.3734 128.39 14.0364 127.533 12.7641 124.924C11.535 122.406 10.6617 119.684 9.87997 116.983C7.93383 110.282 6.97424 103.441 6.78556 96.4382C6.55375 87.845 7.7128 79.5645 11.1522 71.6506C15.3841 61.9091 21.988 54.0761 30.4357 47.7579C39.6757 40.8413 50.1342 37.1054 61.5576 35.7846C74.5121 34.2859 86.7226 36.6256 98.2754 42.5395C103.246 45.084 107.72 48.3401 111.85 52.1138C117.758 57.5101 122.378 63.8445 125.861 70.9983C128.513 76.4485 130.233 82.2169 130.616 88.2763C130.826 91.6995 131.063 95.2468 130.4 98.5622Z" fill="#AFF4C6"/>
<path d="M112.357 94.5415C112.384 98.0564 110.179 100.45 106.982 100.498C103.419 100.552 101.068 98.3259 101.036 94.6601C100.987 89.3015 99.5209 84.3633 96.6529 79.8943C91.3266 71.603 83.6283 66.7134 73.9678 65.2902C62.4365 63.5866 52.501 67.1608 44.5062 75.6516C38.5492 81.9752 36.2149 89.5656 36.9212 98.2612C37.4387 104.623 38.6031 110.784 40.9644 116.704C42.0803 119.507 43.3741 122.186 44.8674 124.736C41.6544 126.844 38.7325 129.372 36.1826 132.235C32.3604 126.197 29.4655 119.604 27.6272 112.364C25.9721 105.841 25.2659 99.2208 25.6756 92.4983C26.2309 83.2798 29.5679 75.2095 35.6381 68.2013C43.3849 59.2739 57.0887 53.0635 67.8221 53.4894C80.2051 53.5002 90.0005 57.3439 98.5074 64.6163C106.211 71.204 110.588 79.6139 112.039 89.5872C112.276 91.2206 112.346 92.8918 112.357 94.5415Z" fill="#66B97D"/>
<path d="M137.085 54.5244C136.842 57.7266 133.705 61.0151 130.724 60.4545C129.139 60.158 127.57 58.821 126.379 57.5865C123.996 55.1066 122.033 52.2171 119.613 49.775C115.187 45.3005 110.233 41.4837 104.745 38.3354C95.7849 33.2032 86.0758 30.4538 75.9084 29.4511C62.5281 28.1303 49.6599 30.3244 37.4117 35.9957C29.708 39.5591 22.937 44.4164 17.0932 50.5297C15.0554 52.6591 13.2979 55.0581 11.4327 57.3493C10.279 58.7671 9.05527 60.0987 7.11452 60.2927C2.53222 60.7617 -0.529843 56.5137 1.59419 52.3896C2.71012 50.2278 4.30045 48.2709 5.89078 46.4003C11.5028 39.7909 17.9503 34.1358 25.433 29.7153C35.2499 23.9146 45.7838 20.2434 57.121 18.7986C62.609 18.0978 68.1131 17.8067 73.6119 18.1139C80.1511 18.4805 86.5987 19.5749 92.9169 21.4024C102.583 24.2057 111.462 28.5562 119.473 34.6588C125.106 38.9446 130.007 43.9582 134.26 49.6133C134.772 50.2925 135.387 50.9125 135.802 51.6456C136.314 52.5567 136.659 53.5594 137.074 54.519L137.085 54.5244Z" fill="#AFF4C6"/>
<path d="M68.8031 -0.00242155C84.8035 0.105397 99.8604 3.87367 113.947 11.4695C116.842 13.0275 117.823 16.0303 116.378 18.8821C114.907 21.7986 111.893 22.7959 108.874 21.3026C102.308 18.0519 95.5584 15.2701 88.4154 13.5666C80.6524 11.7121 72.7601 10.952 64.803 11.3833C52.7974 12.0356 41.3794 15.0383 30.6568 20.5587C29.9775 20.9091 29.3036 21.2703 28.6028 21.5668C25.8642 22.7312 23.0879 21.7285 21.6269 19.0654C20.2738 16.6017 20.8668 13.3294 23.2819 11.9278C26.22 10.2242 29.2982 8.72553 32.4142 7.3724C40.7378 3.76046 49.4658 1.58252 58.4795 0.633711C61.9027 0.272517 65.3529 0.197044 68.7924 -0.0078125L68.8031 -0.00242155Z" fill="#AFF4C6"/>
<path d="M114.675 133.744C113.117 134.127 111.499 134.343 109.898 134.461C108.297 134.585 106.675 134.488 105.063 134.488C104.615 134.505 104.168 134.51 103.72 134.51C95.9735 124.553 84.0487 118.008 70.5983 117.528C66.6683 112.202 64.1669 106.04 63.1588 99.0698C62.9324 97.4795 62.8353 95.8514 62.8623 94.2449C62.9162 91.1559 64.9324 88.924 67.7842 88.6167C70.5228 88.3202 73.1914 90.1909 73.8113 93.0697C74.4474 96.0023 74.7547 99.0051 75.3963 101.932C76.7009 107.9 79.9893 112.693 84.6202 116.558C90.3346 121.324 96.9762 123.502 104.4 123.308C107.176 123.232 109.947 123.07 112.723 123.07C115.009 123.065 116.939 123.922 118.12 126.008C119.839 129.043 118.157 132.882 114.675 133.744Z" fill="#AFF4C6"/>
<path d="M77.6659 151.783C77.1699 155.324 75.5365 158.252 72.6739 160.408C69.2183 163.001 65.078 162.953 61.7303 160.214C58.3933 157.481 56.7005 153.907 56.9377 149.545C57.1911 144.877 60.9701 140.78 65.5902 140.079C66.1562 139.993 66.7331 139.966 67.3045 139.906C67.4716 139.906 67.6333 139.912 67.8005 139.922C71.4232 140.09 74.5338 142.111 76.2804 145.006C77.4557 146.963 78.0109 149.324 77.6659 151.783Z" fill="#7E3126"/>
<path d="M86.8199 176.063C86.8576 176.979 86.3993 177.718 85.7794 178.349C84.6042 179.556 83.1217 180.257 81.5798 180.823C78.8412 181.831 76.0056 182.451 73.0999 182.689C71.1807 182.845 69.2615 182.963 67.337 183.098C62.7007 182.98 58.1238 182.565 53.7086 181.06C52.2315 180.559 50.8137 179.928 49.5576 178.98C48.2153 177.966 47.6492 176.683 47.8433 174.974C48.4147 170.009 50.8407 166.305 55.1804 163.858C56.4418 163.146 57.8058 162.704 59.2236 162.445C59.3691 162.419 59.5686 162.462 59.6872 162.548C62.0053 164.235 64.6091 164.888 67.4502 164.871C70.1888 164.85 72.6848 164.176 74.9274 162.58C75.0676 162.478 75.2994 162.429 75.4719 162.456C81.0785 163.47 85.5638 167.977 86.5503 173.599C86.6959 174.413 86.7821 175.238 86.8199 176.063Z" fill="#7E3126"/>
<path d="M95.8929 133.802C90.5235 128.583 83.6446 124.918 75.9679 123.521C73.7091 123.106 71.3802 122.891 69.0028 122.891C67.9516 122.891 66.9057 122.934 65.876 123.02C61.725 123.349 57.7573 124.341 54.0807 125.883C51.8704 126.81 49.7625 127.937 47.784 129.247C44.598 131.338 41.7462 133.894 39.3256 136.81C33.746 143.5 30.3928 152.11 30.3928 161.501C30.3928 182.827 47.6762 200.111 69.0028 200.111C90.3294 200.111 107.613 182.827 107.613 161.501C107.613 150.632 103.122 140.816 95.8929 133.802ZM56.9379 149.543C57.1912 144.875 60.9703 140.778 65.5903 140.077C66.1564 139.991 66.7332 139.964 67.3047 139.904C67.4718 139.904 67.6335 139.91 67.8006 139.921C71.4233 140.088 74.5339 142.109 76.2806 145.004C77.4558 146.961 78.0111 149.322 77.6661 151.781C77.1701 155.323 75.5366 158.25 72.674 160.406C69.2184 162.999 65.0782 162.951 61.7304 160.212C58.3934 157.479 56.7007 153.905 56.9379 149.543ZM85.7794 178.347C84.6042 179.555 83.1217 180.256 81.5799 180.822C78.8413 181.83 76.0056 182.45 73.0999 182.687C71.1807 182.843 69.2616 182.962 67.337 183.097C62.7008 182.978 58.1239 182.563 53.7087 181.059C52.2316 180.558 50.8137 179.927 49.5576 178.978C48.2153 177.965 47.6493 176.682 47.8433 174.973C48.4148 170.008 50.8407 166.304 55.1804 163.856C56.4419 163.145 57.8058 162.703 59.2236 162.444C59.3692 162.417 59.5686 162.46 59.6872 162.546C62.0053 164.234 64.6092 164.886 67.4502 164.87C70.1888 164.848 72.6848 164.175 74.9275 162.579C75.0676 162.476 75.2994 162.428 75.4719 162.455C81.0785 163.468 85.5638 167.975 86.5503 173.598C86.6959 174.412 86.7822 175.237 86.8199 176.062C86.8576 176.978 86.3994 177.717 85.7794 178.347Z" fill="#66B97D"/>
<path d="M77.6659 151.783C77.1699 155.324 75.5365 158.252 72.6739 160.408C69.2183 163.001 65.078 162.953 61.7303 160.214C58.3933 157.481 56.7005 153.907 56.9377 149.545C57.1911 144.877 60.9701 140.78 65.5902 140.079C66.1562 139.993 66.7331 139.966 67.3045 139.906C67.4716 139.906 67.6333 139.912 67.8005 139.922C71.4232 140.09 74.5338 142.111 76.2804 145.006C77.4557 146.963 78.0109 149.324 77.6659 151.783Z" fill="#7E3126"/>
<path d="M86.8199 176.063C86.8576 176.979 86.3993 177.718 85.7794 178.349C84.6042 179.556 83.1217 180.257 81.5798 180.823C78.8412 181.831 76.0056 182.451 73.0999 182.689C71.1807 182.845 69.2615 182.963 67.337 183.098C62.7007 182.98 58.1238 182.565 53.7086 181.06C52.2315 180.559 50.8137 179.928 49.5576 178.98C48.2153 177.966 47.6492 176.683 47.8433 174.974C48.4147 170.009 50.8407 166.305 55.1804 163.858C56.4418 163.146 57.8058 162.704 59.2236 162.445C59.3691 162.419 59.5686 162.462 59.6872 162.548C62.0053 164.235 64.6091 164.888 67.4502 164.871C70.1888 164.85 72.6848 164.176 74.9274 162.58C75.0676 162.478 75.2994 162.429 75.4719 162.456C81.0785 163.47 85.5638 167.977 86.5503 173.599C86.6959 174.413 86.7821 175.238 86.8199 176.063Z" fill="#7E3126"/>
<path d="M86.8199 176.063C86.8576 176.979 86.3993 177.718 85.7794 178.349C84.6042 179.556 83.1217 180.257 81.5798 180.823C78.8412 181.831 76.0056 182.451 73.0999 182.689C71.1807 182.845 69.2615 182.963 67.337 183.098C62.7007 182.98 58.1238 182.565 53.7086 181.06C52.2315 180.559 50.8137 179.928 49.5576 178.98C48.2153 177.966 47.6492 176.683 47.8433 174.974C48.4147 170.009 50.8407 166.305 55.1804 163.858C56.4418 163.146 57.8058 162.704 59.2236 162.445C59.3691 162.419 59.5686 162.462 59.6872 162.548C62.0053 164.235 64.6091 164.888 67.4502 164.871C70.1888 164.85 72.6848 164.176 74.9274 162.58C75.0676 162.478 75.2994 162.429 75.4719 162.456C81.0785 163.47 85.5638 167.977 86.5503 173.599C86.6959 174.413 86.7821 175.238 86.8199 176.063Z" fill="white"/>
<path d="M77.6659 151.783C77.1699 155.324 75.5365 158.252 72.6739 160.408C69.2183 163.001 65.078 162.953 61.7303 160.214C58.3933 157.481 56.7005 153.907 56.9377 149.545C57.1911 144.877 60.9701 140.78 65.5902 140.079C66.1562 139.993 66.7331 139.966 67.3045 139.906C67.4716 139.906 67.6333 139.912 67.8005 139.922C71.4232 140.09 74.5338 142.111 76.2804 145.006C77.4557 146.963 78.0109 149.324 77.6659 151.783Z" fill="white"/>
</g>
<defs>
<clipPath id="clip0_3849_120666">
<rect width="136.17" height="200.112" fill="white" transform="translate(0.915039)"/>
</clipPath>
</defs>
</svg>
