<svg width="181" height="112" viewBox="0 0 181 112" fill="none" xmlns="http://www.w3.org/2000/svg">
<g clip-path="url(#clip0_4075_117657)">
<path d="M180.941 56.1799C180.941 71.4373 180.822 86.6862 181 101.935C181.06 107.369 177.672 111.674 171.338 111.597C152.837 111.377 134.328 111.521 115.819 111.512C110.275 111.512 106.955 108.303 106.929 102.759C106.878 94.2173 106.955 85.6674 106.878 77.1259C106.861 75.5128 107.396 75.1222 108.942 75.1052C113.518 75.0373 118.128 75.0458 122.671 74.5448C127.188 74.0439 131.127 71.8449 134.549 68.8817C139.117 64.9421 138.786 57.9714 133.963 54.3375C128.945 50.5592 123.333 48.581 117.033 48.6234C114.282 48.6404 111.523 48.581 108.772 48.6404C107.464 48.6744 106.878 48.3517 106.887 46.8829C106.938 34.1047 106.861 21.318 106.946 8.53986C106.972 3.71727 110.512 0.414475 115.377 0.405985C134.235 0.389004 153.1 0.405985 171.958 0.405985C177.629 0.405985 180.924 3.73425 180.932 9.56721C180.958 25.1048 180.932 40.6424 180.932 56.1714L180.941 56.1799ZM147.335 23.7293C147.335 26.3359 147.276 28.951 147.352 31.5575C147.437 34.8434 149.11 36.4735 152.37 36.499C156.675 36.533 160.98 36.533 165.276 36.499C168.562 36.4735 170.336 34.6905 170.362 31.3708C170.396 26.2935 170.396 21.2161 170.362 16.1388C170.345 12.8021 168.596 11.0276 165.301 11.0021C160.997 10.9681 156.692 10.9681 152.396 11.0021C149.017 11.0276 147.403 12.6747 147.344 16.1134C147.301 18.652 147.344 21.1907 147.344 23.7293H147.335ZM153.389 80.9806C153.389 75.9712 153.406 70.9704 153.389 65.961C153.381 63.5412 152.251 62.2591 150.282 62.2931C148.371 62.327 147.352 63.4987 147.344 65.8846C147.318 75.8269 147.318 85.7693 147.344 95.7116C147.344 98.0804 148.609 99.5493 150.409 99.4814C152.209 99.4135 153.381 97.9191 153.389 95.5842C153.406 90.7192 153.389 85.8542 153.389 80.9891V80.9806ZM170.37 80.8872C170.37 75.9458 170.387 71.0128 170.37 66.0713C170.362 63.5836 169.317 62.3101 167.373 62.2931C165.378 62.2761 164.274 63.5072 164.265 65.961C164.24 75.8354 164.24 85.7098 164.265 95.5842C164.265 97.9616 165.463 99.4304 167.263 99.4644C169.131 99.5068 170.362 97.9531 170.362 95.4824C170.379 90.6173 170.362 85.7523 170.362 80.8787L170.37 80.8872Z" fill="white"/>
<path d="M33.2321 38.6061C36.7981 38.258 40.3811 38.2835 43.7773 37.4854C49.1772 36.2203 54.5347 34.6411 59.7649 32.7732C65.6657 30.659 71.4053 28.0864 77.2043 25.6836C84.6165 22.6101 93.8796 21.2261 100.723 22.262V48.3872C96.9107 48.6504 93.6079 47.4192 90.6278 45.3306C88.9042 44.1249 87.3844 42.6136 85.7967 41.2127C84.158 39.7693 82.5873 39.659 81.2967 40.9325C79.9892 42.2231 80.0911 44.0655 81.5854 45.6278C87.325 51.6475 94.1768 54.9928 102.667 54.7126C107.464 54.5597 112.27 54.738 117.076 54.6701C121.864 54.6022 126.059 56.2239 129.879 58.9663C132.206 60.6389 132.214 62.9483 129.973 64.7483C126.364 67.6436 122.187 68.9766 117.602 69.0275C111.744 69.1039 105.877 69.019 100.018 69.1124C92.5041 69.2313 86.5268 72.7209 81.3561 77.8661C80.0656 79.1567 80.0571 81.0331 81.2118 82.2387C82.3326 83.4189 84.175 83.5123 85.5929 82.2047C88.4712 79.5472 91.4853 77.1189 95.34 76.0661C97.0126 75.6076 98.7531 75.4039 100.816 75.0133C100.816 78.868 100.85 82.3661 100.765 85.8641C100.757 86.2632 100.129 86.7387 99.6871 87.0103C94.4739 90.2622 89.3457 93.6414 84.0052 96.664C75.3109 101.597 65.9714 102.837 56.4196 99.9074C49.1178 97.6659 41.833 96.0527 34.1746 96.5112C33.9114 96.5282 33.6397 96.4263 33.2236 96.3499V38.6061H33.2321Z" fill="white"/>
<path d="M27.0337 67.396C27.0337 78.4081 27.0337 89.4288 27.0337 100.441C27.0337 104.847 25.5903 106.299 21.2177 106.316C15.9876 106.325 10.7659 106.333 5.53579 106.316C1.61319 106.299 0.00849048 104.686 0 100.764C0 78.5185 0 56.282 0 34.0369C0 30.2417 1.59621 28.6455 5.41692 28.6285C10.8593 28.603 16.2932 28.603 21.7356 28.6285C25.446 28.6455 27.0167 30.2077 27.0252 33.9265C27.0422 45.083 27.0252 56.2395 27.0252 67.396H27.0337ZM21.6252 83.3666C21.6252 78.8497 17.9404 75.0714 13.5253 75.0459C9.15274 75.0205 5.46787 78.7138 5.45938 83.1119C5.45938 87.7137 9.11028 91.492 13.5084 91.4325C17.9319 91.3731 21.6337 87.6967 21.6252 83.3581V83.3666Z" fill="white"/>
<path d="M153.517 17.1016H164.07V30.2533H153.517V17.1016Z" fill="white"/>
</g>
<defs>
<clipPath id="clip0_4075_117657">
<rect width="181" height="111.191" fill="white" transform="translate(0 0.40625)"/>
</clipPath>
</defs>
</svg>
