<svg width="223" height="145" viewBox="0 0 223 145" fill="none" xmlns="http://www.w3.org/2000/svg">
<g clip-path="url(#clip0_3849_117331)">
<path d="M60.648 36.4545C58.9321 60.2851 77.4413 78.7172 95.7191 81.8984C98.5919 82.3997 101.6 82.3226 104.53 82.3419C108.406 82.3805 112.3 81.8984 116.137 82.2841C134.762 84.2121 156.337 68.9998 160.444 46.8273C161.157 42.952 161.35 38.8452 160.945 34.9313C159.364 19.2178 170.122 4.25615 185.373 1.40265C201.723 -1.66294 217.128 7.80375 221.312 23.498C227.135 45.2849 209.532 64.9124 187.031 62.6373C171.607 61.0756 159.345 68.0937 150.09 80.1439C143.168 89.1479 140.257 99.3472 141.684 110.915C143.515 125.8 131.754 140.993 117.005 143.654C100.848 146.584 85.2113 137.272 81.2588 121.809C80.102 117.317 79.9477 112.323 80.5261 107.696C82.3771 92.6569 72.2741 74.6104 56.4835 66.8212C49.8124 63.5435 42.8329 61.8468 35.3328 62.618C15.474 64.6232 4.38773 51.9752 1.41854 39.8093C-2.63035 23.151 7.76181 6.39628 24.6707 2.55947C41.1362 -1.18093 57.4475 9.61611 60.5709 26.5443C61.1686 29.7449 60.648 33.1382 60.648 36.4352V36.4545ZM25.5384 8.09296C16.4958 8.03511 9.86337 14.4169 9.72841 23.3052C9.61273 31.268 16.0717 37.5727 24.4008 37.6113C32.9613 37.6306 39.2082 31.3452 39.2275 22.6882C39.266 14.0699 33.694 8.1508 25.5384 8.09296ZM189.75 14.3013C186.954 14.2241 184.544 16.5763 184.525 19.3913C184.525 22.052 186.742 24.4428 189.364 24.5392C192.237 24.6548 194.608 22.4569 194.724 19.5841C194.84 16.5763 192.777 14.3784 189.769 14.3013H189.75Z" fill="white"/>
<path d="M80.3918 34.5264C80.3339 17.2319 93.811 3.58136 110.951 3.52352C127.879 3.48496 141.607 17.1548 141.684 34.1023C141.761 51.1655 127.976 65.0859 110.971 65.1245C93.9459 65.1631 80.4496 51.6475 80.3918 34.5264ZM89.8392 26.0816C89.8006 35.0856 96.7416 42.3157 105.36 42.2579C113.901 42.2001 121.44 34.4686 121.363 25.831C121.286 17.3669 114.113 10.2717 105.495 10.156C96.7609 10.0403 89.8392 17.0391 89.8199 26.0816H89.8392Z" fill="white"/>
</g>
<defs>
<clipPath id="clip0_3849_117331">
<rect width="221.898" height="143.35" fill="white" transform="translate(0.550781 0.828125)"/>
</clipPath>
</defs>
</svg>
