<svg width="116" height="76" viewBox="0 0 116 76" fill="none" xmlns="http://www.w3.org/2000/svg">
<path d="M31.97 19.2147C31.081 31.5605 40.67 41.1096 50.1392 42.7577C51.6275 43.0174 53.1857 42.9775 54.704 42.9874C56.7117 43.0074 58.7294 42.7577 60.7171 42.9575C70.3661 43.9563 81.5433 36.0754 83.6708 24.5885C84.0404 22.5808 84.1403 20.4532 83.9305 18.4256C83.1115 10.2849 88.6851 2.53376 96.586 1.05545C105.056 -0.532729 113.037 4.37166 115.205 12.5023C118.221 23.7894 109.102 33.9578 97.4451 32.7791C89.4542 31.9701 83.1015 35.6059 78.307 41.8488C74.7211 46.5134 73.2128 51.7974 73.952 57.7905C74.9009 65.5017 68.8078 73.3727 61.1666 74.7511C52.7962 76.2693 44.6954 71.4449 42.6478 63.434C42.0485 61.1067 41.9686 58.5197 42.2682 56.1224C43.2271 48.3313 37.9931 38.982 29.8125 34.9467C26.3564 33.2486 22.7406 32.3696 18.855 32.7691C8.5668 33.808 2.82337 27.2555 1.28513 20.9527C-0.812466 12.3226 4.57137 3.64249 13.3313 1.65477C21.8616 -0.283015 30.3119 5.31058 31.93 14.0805C32.2397 15.7386 31.97 17.4966 31.97 19.2047V19.2147ZM13.7808 4.52149C9.09619 4.49152 5.66012 7.79773 5.5902 12.4025C5.53027 16.5277 8.87644 19.794 13.1915 19.814C17.6264 19.824 20.8627 16.5677 20.8727 12.0828C20.8927 7.61794 18.006 4.55145 13.7808 4.52149ZM98.8534 7.7378C97.4051 7.69785 96.1565 8.91645 96.1465 10.3748C96.1465 11.7532 97.2952 12.9918 98.6537 13.0417C100.142 13.1017 101.371 11.963 101.43 10.4747C101.49 8.91645 100.422 7.77776 98.8634 7.7378H98.8534Z" fill="white"/>
<path d="M42.1983 18.2179C42.1684 9.25816 49.1504 2.18626 58.0302 2.15629C66.8002 2.13632 73.912 9.21821 73.952 17.9982C73.9919 26.838 66.8501 34.0498 58.0402 34.0698C49.2203 34.0897 42.2283 27.0878 42.1983 18.2179ZM47.0927 13.8429C47.0728 18.5076 50.6686 22.2533 55.1335 22.2233C59.5585 22.1934 63.464 18.1879 63.424 13.7131C63.3841 9.32808 59.6683 5.65229 55.2035 5.59236C50.6786 5.53243 47.0927 9.15828 47.0827 13.8429H47.0927Z" fill="white"/>
</svg>
