<svg width="119" height="130" viewBox="0 0 119 130" fill="none" xmlns="http://www.w3.org/2000/svg">
<path d="M51.3695 31.2505C37.5978 33.0248 25.0407 40.0409 16.3112 50.8391C10.341 58.0047 6.66189 66.7989 5.7503 76.0811C4.84158 86.722 6.33934 97.4312 10.1326 107.415C10.308 108.052 10.61 108.647 11.0211 109.165C11.4323 109.683 11.9442 110.112 12.5254 110.427C13.1066 110.742 13.7449 110.937 14.4031 110.999C15.0612 111.061 15.7252 110.989 16.3551 110.789C16.9599 110.608 17.5213 110.304 18.0038 109.897C18.4863 109.49 18.8797 108.988 19.1598 108.422C19.4807 107.736 19.6471 106.988 19.6471 106.231C19.6471 105.474 19.4807 104.726 19.1598 104.04C16.5672 97.206 15.2171 89.9637 15.1723 82.6545C14.9783 77.6704 15.7671 72.6968 17.4945 68.0176C19.963 61.489 24.0073 55.6721 29.2676 51.0847C34.5279 46.4972 40.841 43.2815 47.6446 41.7239C53.7736 40.0296 60.1905 39.6419 66.479 40.5855C72.7675 41.5292 78.7876 43.7832 84.1494 47.2018C89.3986 50.401 93.8855 54.7084 97.2962 59.8227C100.646 64.8583 102.831 70.577 103.694 76.5631C104.363 79.5345 104.257 82.6278 103.388 85.5467C102.666 87.2764 101.528 88.8014 100.075 89.9862C98.6228 91.1711 96.9007 91.9795 95.0612 92.3395C93.1575 92.7661 91.1788 92.7257 89.2939 92.222C87.4091 91.7184 85.6738 90.7663 84.2366 89.447C83.0961 88.3608 82.1981 87.0458 81.6014 85.5882C81.0048 84.1306 80.7234 82.5634 80.7749 80.9892C80.7125 77.6196 79.6941 74.3371 77.8386 71.5236C75.5517 67.9273 72.2485 65.0909 68.3476 63.3745C64.4466 61.6581 60.1237 61.1389 55.9272 61.8826C51.6051 62.5011 47.5871 64.4631 44.4414 67.4909C41.2956 70.5187 39.1813 74.4589 38.3981 78.7542C37.7002 84.7577 38.3748 90.8413 40.3704 96.5463C44.1937 108.38 52.3069 118.353 63.1142 124.505C67.3166 126.949 71.8468 128.779 76.5676 129.939C77.1196 130.022 77.6809 130.022 78.2329 129.939C79.3491 129.958 80.4309 129.551 81.2569 128.8C81.856 128.253 82.313 127.567 82.5879 126.804C82.8627 126.04 82.9472 125.221 82.8345 124.418C82.6091 123.529 82.1607 122.712 81.5319 122.045C80.9031 121.378 80.115 120.882 79.2412 120.605L76.7869 119.816C74.9792 119.272 73.2083 118.614 71.4845 117.844C64.4705 114.783 58.4986 109.747 54.2967 103.351C50.0948 96.9552 47.8445 89.4747 47.8201 81.8219C47.7512 80.4207 48.0079 79.0226 48.5706 77.7376C49.1333 76.4525 49.9865 75.3155 51.0629 74.4158C52.792 72.7153 55.0051 71.5918 57.3983 71.1994C59.7915 70.8071 62.2476 71.1652 64.4291 72.2247C66.4691 73.053 68.2034 74.4908 69.3955 76.3419C70.5877 78.1929 71.1793 80.3669 71.0897 82.5668C71.1613 84.6183 71.5608 86.6452 72.273 88.5705C74.2809 93.6442 78.1383 97.7679 83.0666 100.11C87.995 102.452 93.6279 102.839 98.8299 101.191C102.83 100.009 106.378 97.643 109.006 94.4044C111.635 91.1657 113.221 87.2068 113.554 83.049C113.78 75.6764 112.279 68.3531 109.172 61.6635C104.052 51.0827 95.6768 42.4204 85.2744 36.9471C74.8719 31.4738 62.9894 29.4774 51.3695 31.2505Z" fill="#D7D7D7"/>
<path d="M31.5666 82.9599C31.3994 78.3322 32.6035 73.7583 35.0282 69.8131C37.3135 66.1524 40.3867 63.0477 44.0239 60.7251C47.661 58.4026 51.7703 56.9207 56.0527 56.3875C60.335 55.8543 64.6824 56.2833 68.778 57.643C72.8736 59.0028 76.6146 61.259 79.7278 64.2475C82.2163 66.6017 84.205 69.4332 85.5753 72.5729C86.9456 75.7125 87.6693 79.096 87.7033 82.5215C87.7222 83.8401 88.2569 85.0989 89.1931 86.0276C90.1736 86.8494 91.4202 87.2855 92.6992 87.2545C93.3382 87.2323 93.9664 87.0823 94.5463 86.8129C95.1263 86.5435 95.6461 86.1603 96.0752 85.6863C96.5043 85.2122 96.8341 84.6566 97.0445 84.0528C97.255 83.449 97.3422 82.8092 97.3008 82.1711C97.296 76.8021 96.028 71.5095 93.5995 66.7211C91.171 61.9326 87.6499 57.7825 83.321 54.6064C77.0362 49.7361 69.4054 46.9177 61.4636 46.5335C53.5219 46.1494 45.654 48.2182 38.9285 52.4591C31.0265 57.2051 25.3115 64.8723 23.0208 73.8008C21.5754 80.5165 21.5754 87.4629 23.0208 94.1785C24.4993 102.126 27.6191 109.678 32.1802 116.353C35.0554 120.595 38.3751 124.517 42.0836 128.053C42.496 128.486 42.9928 128.83 43.5429 129.063C44.0931 129.297 44.6854 129.416 45.2831 129.412C45.8809 129.414 46.4739 129.31 47.0356 129.105C47.8769 128.821 48.6206 128.303 49.1791 127.613C49.7377 126.922 50.0887 126.087 50.1913 125.205C50.2625 124.289 50.1126 123.368 49.7542 122.522C49.3958 121.675 48.8389 120.927 48.1312 120.341C42.9536 115.579 38.8115 109.804 35.9617 103.373C33.1119 96.9421 31.6159 89.9937 31.5666 82.9599Z" fill="#74C84D"/>
<path d="M117.675 44.5712C116.448 42.9936 115.222 41.3721 113.951 39.8822C105.828 30.3305 95.2057 23.2291 83.2747 19.3731C73.3051 16.0547 62.7483 14.8752 52.2922 15.9112C42.4612 16.7415 32.9101 19.6067 24.2455 24.3251C15.2702 29.2124 7.52282 36.0756 1.58889 44.396C1.16253 44.8955 0.840748 45.4754 0.642569 46.1014C0.44439 46.7275 0.374249 47.3868 0.435545 48.0406C0.49684 48.6944 0.688287 49.3295 0.999378 49.9079C1.31047 50.4862 1.73458 50.9961 2.24634 51.4076C2.71889 51.8115 3.27194 52.1103 3.86883 52.2841C4.46573 52.4579 5.09298 52.5026 5.70851 52.4154C6.4362 52.2839 7.12961 52.0066 7.74719 51.5999C8.36478 51.1932 8.89351 50.6657 9.30175 50.0491C14.8626 42.3093 22.2355 36.0501 30.775 31.8189C43.8183 25.4174 58.6333 23.5809 72.8448 26.604C82.505 28.4595 91.5454 32.7086 99.1385 38.9621C103.032 42.1954 106.52 45.8886 109.524 49.9613C110.086 50.6501 110.769 51.2295 111.541 51.6705L112.241 52.1525L112.811 52.5909H113.556C114.447 52.5262 115.309 52.2499 116.071 51.785C116.833 51.32 117.474 50.6799 117.939 49.9178C118.492 49.1228 118.766 48.167 118.718 47.1997C118.671 46.2324 118.304 45.3081 117.675 44.5712Z" fill="#D7D7D7"/>
<path d="M20.5212 18.5383C21.1595 18.866 21.8634 19.0458 22.5807 19.0641C23.5249 19.0361 24.4457 18.7644 25.2539 18.2753C41.5394 9.62229 60.4853 7.41648 78.3232 12.0964C83.7697 13.6402 89.0531 15.7095 94.0993 18.2753C94.7165 18.6332 95.4006 18.8606 96.1091 18.9435C96.8176 19.0264 97.5358 18.963 98.2189 18.7573C98.8405 18.5326 99.41 18.1836 99.8922 17.7316C100.374 17.2795 100.759 16.7339 101.024 16.1281C101.301 15.5362 101.453 14.8932 101.469 14.2397C101.486 13.5862 101.367 12.9362 101.12 12.331C100.873 11.7258 100.503 11.1785 100.034 10.7232C99.5649 10.268 99.0068 9.91474 98.3944 9.68598C86.5627 3.25564 73.296 -0.0758823 59.8301 0.00131155H57.157L51.1971 0.351701C40.434 1.38549 29.9954 4.6067 20.5212 9.81758C19.6988 10.2063 19.0099 10.8302 18.5419 11.6102C18.0739 12.3902 17.848 13.2913 17.8919 14.1999C17.8886 15.0949 18.132 15.9735 18.5959 16.739C19.0598 17.5044 19.7262 18.127 20.5212 18.5383Z" fill="#D7D7D7"/>
<path d="M97.3389 107.059H94.7968C92.1989 107.212 89.5941 107.212 86.9962 107.059C82.1351 106.595 77.5137 104.729 73.6937 101.687C69.8737 98.6449 67.0202 94.5584 65.4796 89.9245C64.9535 87.9242 64.5727 85.8886 64.3402 83.8333C64.3402 83.0007 64.1212 82.168 63.9459 81.3354C63.8064 80.1306 63.2292 79.0188 62.3245 78.2111C61.4198 77.4033 60.2501 76.9558 59.0373 76.9531C58.4102 76.9585 57.7908 77.0897 57.2152 77.3388C56.6397 77.588 56.12 77.9501 55.6869 78.4036C55.2538 78.8572 54.9159 79.3929 54.6935 79.9793C54.4711 80.5657 54.3689 81.1907 54.3923 81.8174C54.3613 87.6435 55.8733 93.3738 58.7746 98.4261C62.0177 104.302 66.8375 109.155 72.6912 112.438C78.545 115.721 85.1994 117.304 91.9044 117.007H93.4386C94.9724 117.007 96.7688 116.7 98.6094 116.438C99.2595 116.372 99.89 116.178 100.464 115.866C101.038 115.554 101.544 115.13 101.952 114.62C102.36 114.11 102.663 113.523 102.841 112.895C103.02 112.266 103.071 111.608 102.992 110.96C102.727 109.71 101.993 108.609 100.942 107.884C99.8903 107.159 98.6012 106.863 97.3389 107.059Z" fill="#D7D7D7"/>
</svg>
