<svg width="125" height="165" viewBox="0 0 125 165" fill="none" xmlns="http://www.w3.org/2000/svg">
<g clip-path="url(#clip0_1789_78596)">
<path d="M1.62994 26.6003H0V0H27.6927V1.62594H1.62994V26.6003Z" fill="#74C84D"/>
<path d="M125 26.6003H123.37V1.62594H97.291V0H125V26.6003Z" fill="#74C84D"/>
<path d="M27.6927 164.999H0V138.398H1.62994V163.373H27.6927V164.999Z" fill="#74C84D"/>
<path d="M125 164.999H97.291V163.373H123.37V138.398H125V164.999Z" fill="#74C84D"/>
</g>
<path d="M18.3184 102.446C18.3747 109.569 19.693 116.627 22.2132 123.295C22.4174 123.677 22.534 124.1 22.5537 124.532C22.5735 124.964 22.4961 125.396 22.3278 125.795C22.1594 126.194 21.9038 126.551 21.5798 126.84C21.2557 127.129 20.8716 127.342 20.4545 127.464C20.0478 127.603 19.6156 127.654 19.1876 127.613C18.7595 127.573 18.3452 127.441 17.9723 127.228C17.5994 127.015 17.2769 126.725 17.0259 126.377C16.775 126.029 16.6014 125.632 16.5172 125.213C12.9256 115.923 11.4937 105.944 12.3289 96.0243C13.1536 87.492 16.5563 79.4089 22.088 72.8405C30.159 62.8668 41.7883 56.3833 54.5472 54.7439C65.3719 53.0693 76.45 54.9258 86.1275 60.0362C95.805 65.1467 103.562 73.2367 108.241 83.0981C111.081 89.2321 112.43 95.9462 112.178 102.696C111.891 106.333 110.499 109.796 108.187 112.626C105.875 115.457 102.753 117.52 99.2359 118.541C94.6482 120.02 89.6666 119.699 85.308 117.646C80.9493 115.592 77.5422 111.96 75.7816 107.491C75.1583 105.821 74.8187 104.06 74.7764 102.279C74.8449 99.8891 74.1799 97.5355 72.8704 95.5316C71.5609 93.5276 69.6691 91.9684 67.4469 91.0623C65.0884 89.9302 62.4371 89.5472 59.8526 89.9648C57.2681 90.3825 54.8754 91.5807 52.9975 93.3973C51.7944 94.421 50.8409 95.704 50.2096 97.1489C49.5783 98.5938 49.2857 100.163 49.3538 101.737C49.3491 109.314 51.5762 116.726 55.7599 123.055C59.9436 129.384 65.9003 134.353 72.8919 137.347C75.3667 138.401 77.8971 139.319 80.4724 140.099C80.892 140.173 81.2912 140.334 81.6447 140.571C81.9983 140.808 82.2982 141.115 82.5251 141.474C82.7521 141.834 82.9012 142.236 82.9628 142.656C83.0244 143.076 82.9969 143.504 82.8825 143.912C82.7682 144.321 82.5694 144.702 82.2987 145.029C82.0279 145.357 81.6917 145.625 81.3109 145.815C80.9301 146.006 80.5136 146.115 80.0879 146.136C79.6623 146.157 79.2366 146.089 78.8389 145.936C74.4374 144.858 70.2083 143.174 66.2741 140.933C56.2923 135.264 48.817 126.066 45.3326 115.164C43.49 109.966 42.8601 104.419 43.49 98.9431C44.169 95.2049 46.0097 91.7733 48.7525 89.1324C51.4953 86.4915 55.002 84.7747 58.7774 84.2241C62.4755 83.5553 66.2895 83.99 69.7399 85.4739C73.1904 86.9578 76.1227 89.4245 78.1687 92.5636C79.7848 95.0518 80.6702 97.9404 80.724 100.903C80.6743 102.603 80.9841 104.295 81.6335 105.868C82.2829 107.441 83.2569 108.86 84.493 110.035C86.0156 111.46 87.8582 112.502 89.8674 113.074C91.8766 113.646 93.9943 113.732 96.0435 113.323C98.0927 112.915 100.014 112.026 101.647 110.728C103.281 109.431 104.58 107.763 105.434 105.865C106.395 102.841 106.526 99.6157 105.812 96.5246C105.007 90.558 102.844 84.8533 99.4874 79.8456C96.1131 74.7806 91.6676 70.5112 86.4619 67.3364C81.1601 63.968 75.2069 61.7452 68.9879 60.8115C62.7689 59.8777 56.4227 60.2539 50.3589 61.9157C43.6221 63.4446 37.3698 66.6091 32.1594 71.1272C26.949 75.6452 22.9423 81.3764 20.4964 87.81C18.8192 92.5006 18.0793 97.4725 18.3184 102.446Z" fill="#D7D7D7"/>
<path d="M34.0651 102.531C34.1098 109.374 35.5638 116.135 38.3373 122.396C41.1108 128.657 45.1448 134.285 50.1899 138.933C50.687 139.334 51.0849 139.843 51.3536 140.421C51.6222 141 51.7544 141.632 51.7396 142.269C51.6864 142.826 51.4661 143.354 51.1076 143.785C50.7492 144.217 50.2692 144.531 49.7293 144.687C49.2167 144.908 48.6483 144.966 48.1014 144.854C47.5545 144.742 47.0556 144.465 46.6719 144.062C43.1971 140.769 40.0802 137.121 37.3735 133.179C33.1984 126.999 30.3469 120.03 28.997 112.705C27.6567 106.536 27.6567 100.152 28.997 93.9828C31.0735 85.8716 36.2815 78.9038 43.4888 74.5934C49.6432 70.7118 56.8497 68.8135 64.127 69.1567C71.4043 69.4999 78.3985 72.0682 84.1569 76.5116C88.0678 79.4155 91.2411 83.191 93.423 87.5355C95.6049 91.88 96.7348 96.6728 96.7217 101.53C96.7382 101.924 96.6765 102.318 96.5402 102.689C96.4039 103.059 96.1956 103.399 95.9272 103.69C95.6588 103.98 95.3358 104.215 94.9762 104.381C94.6167 104.547 94.228 104.641 93.832 104.657C93.436 104.674 93.0406 104.612 92.6684 104.477C92.2962 104.341 91.9544 104.134 91.6627 103.867C91.371 103.599 91.1352 103.278 90.9684 102.92C90.8016 102.562 90.7073 102.174 90.6908 101.78C90.6478 98.3242 89.9144 94.9112 88.5338 91.7399C87.1532 88.5686 85.1529 85.7025 82.6491 83.3083C79.5037 80.2975 75.7227 78.0236 71.5823 76.6526C67.4419 75.2815 63.0465 74.848 58.7163 75.3834C54.3861 75.9187 50.2306 77.4096 46.5528 79.7473C42.875 82.085 39.7675 85.2105 37.4574 88.8959C34.9602 92.9917 33.777 97.748 34.0651 102.531Z" fill="#D7D7D7"/>
<path d="M113.813 71.9684C112.971 71.487 112.197 70.898 111.509 70.2169C108.583 66.2207 105.163 62.6066 101.332 59.4591C93.8798 53.3233 84.9906 49.1635 75.4903 47.3667C61.5825 44.4054 47.0778 46.1974 34.3191 52.4537C25.9715 56.5987 18.7788 62.7285 13.3777 70.3004C13.1713 70.6883 12.8819 71.0266 12.53 71.2911C12.1781 71.5557 11.7726 71.74 11.3413 71.8315C10.91 71.9229 10.4637 71.9191 10.034 71.8203C9.60439 71.7214 9.20179 71.5299 8.85454 71.2593C8.52651 70.987 8.2567 70.6517 8.06156 70.2734C7.86642 69.8951 7.74977 69.4817 7.7185 69.0576C7.68724 68.6335 7.74198 68.2076 7.87955 67.805C8.01713 67.4024 8.23509 67.0316 8.51966 66.7144C14.0259 59.0437 21.1797 52.6907 29.4611 48.1173C37.5587 43.7191 46.4876 41.0493 55.6793 40.2781C65.4486 39.3297 75.3093 40.438 84.6205 43.5306C95.715 47.0885 105.583 53.6766 113.101 62.5447C114.316 63.9624 115.488 65.4635 116.619 66.9646C116.957 67.4325 117.138 67.994 117.138 68.57C117.138 69.146 116.957 69.7073 116.619 70.1752C116.3 70.6494 115.885 71.0532 115.403 71.3616C114.92 71.6701 114.379 71.8767 113.813 71.9684Z" fill="#D7D7D7"/>
<path d="M62.7143 25.1406C75.2953 25.1892 87.6741 28.2954 98.7753 34.1892C100.66 35.1482 101.33 36.691 100.577 38.3589C100.416 38.7797 100.161 39.1583 99.8311 39.4663C99.5013 39.7742 99.1052 40.0034 98.6731 40.1361C98.241 40.2688 97.7844 40.3016 97.3377 40.232C96.8909 40.1625 96.4656 39.9924 96.0948 39.7348C91.1873 37.223 86.0378 35.2113 80.7241 33.7303C72.3871 31.5187 63.7119 30.8545 55.1332 31.7706C45.9196 32.6504 36.9766 35.3583 28.8312 39.7348C28.3919 40.0296 27.8841 40.2073 27.3562 40.2511C26.8283 40.2949 26.2975 40.2033 25.8152 39.9849C25.279 39.75 24.8232 39.3645 24.5033 38.8758C24.1835 38.3871 24.0138 37.8163 24.0146 37.233C23.9979 36.6732 24.1479 36.1209 24.4461 35.6459C24.7442 35.171 25.1772 34.7947 25.69 34.5643C34.59 29.7014 44.3972 26.707 54.5054 25.7662C57.2278 25.3909 59.9919 25.3074 62.7143 25.1406Z" fill="#D7D7D7"/>
<path d="M93.08 133.761C86.9942 134.039 80.9505 132.627 75.6249 129.681C70.2993 126.736 65.9021 122.373 62.9245 117.082C60.3265 112.503 58.9695 107.33 58.9873 102.071C58.9704 101.675 59.0336 101.28 59.1729 100.909C59.3121 100.538 59.5248 100.199 59.7981 99.9108C60.0715 99.6231 60.4001 99.3929 60.7644 99.2339C61.1288 99.0748 61.5216 98.9902 61.9194 98.985C62.6937 98.97 63.4455 99.2442 64.0268 99.7535C64.6082 100.263 64.977 100.97 65.0606 101.737C65.3544 104.55 65.8583 107.338 66.5683 110.076C68.1168 114.787 71.0158 118.943 74.9081 122.032C78.8004 125.122 83.5158 127.01 88.473 127.464C91.8395 127.589 95.2108 127.506 98.5669 127.214C98.9861 127.131 99.4176 127.133 99.8358 127.221C100.254 127.309 100.65 127.482 100.999 127.728C101.348 127.974 101.643 128.288 101.866 128.651C102.088 129.015 102.234 129.42 102.294 129.841C102.347 130.255 102.312 130.676 102.192 131.076C102.072 131.476 101.87 131.847 101.598 132.165C101.326 132.483 100.991 132.741 100.613 132.922C100.235 133.103 99.8235 133.205 99.4043 133.219C97.0589 133.427 94.6715 133.594 93.08 133.761Z" fill="#D7D7D7"/>
<defs>
<clipPath id="clip0_1789_78596">
<rect width="125" height="165" fill="white"/>
</clipPath>
</defs>
</svg>
