<svg width="92" height="102" viewBox="0 0 92 102" fill="none" xmlns="http://www.w3.org/2000/svg">
<path d="M8.91907 64.9914C8.96636 70.9805 10.0747 76.9143 12.1936 82.5197C12.3652 82.8411 12.4632 83.1965 12.4799 83.5601C12.4965 83.9236 12.4314 84.2864 12.2899 84.622C12.1483 84.9576 11.9334 85.2576 11.661 85.5003C11.3886 85.743 11.0656 85.9224 10.7149 86.0254C10.373 86.1423 10.0097 86.185 9.6498 86.1508C9.28991 86.1165 8.94155 86.0061 8.62807 85.8268C8.31459 85.6475 8.04344 85.4036 7.83244 85.1113C7.62144 84.8191 7.47552 84.4852 7.40475 84.1322C4.38513 76.3219 3.18127 67.9322 3.88351 59.5926C4.57682 52.4192 7.43763 45.6235 12.0883 40.1011C18.8738 31.7159 28.651 26.2651 39.3779 24.8867C48.4786 23.4788 57.7924 25.0397 65.9286 29.3362C74.0648 33.6327 80.5866 40.4343 84.52 48.7251C86.9081 53.8822 88.0423 59.527 87.8302 65.2018C87.5889 68.2593 86.4184 71.1711 84.4749 73.5506C82.5314 75.9301 79.9066 77.6645 76.9492 78.5232C73.0922 79.7663 68.9041 79.4971 65.2396 77.7707C61.5751 76.0443 58.7106 72.9907 57.2304 69.2332C56.7064 67.8293 56.4209 66.3483 56.3853 64.8511C56.4429 62.8419 55.8838 60.8632 54.7829 59.1784C53.6819 57.4935 52.0914 56.1827 50.2232 55.4209C48.2402 54.4691 46.0112 54.1471 43.8383 54.4982C41.6654 54.8494 39.6538 55.8567 38.075 57.384C37.0635 58.2447 36.2619 59.3234 35.7311 60.5381C35.2004 61.7529 34.9544 63.0718 35.0116 64.3953C35.0077 70.7655 36.8801 76.9971 40.3975 82.3184C43.9149 87.6397 48.9229 91.8173 54.8009 94.3338C56.8816 95.2198 59.009 95.9921 61.1742 96.6474C61.5269 96.7098 61.8626 96.8451 62.1598 97.0443C62.457 97.2435 62.7092 97.5022 62.9 97.8041C63.0908 98.1061 63.2161 98.4444 63.2679 98.7974C63.3197 99.1503 63.2966 99.5101 63.2004 99.8537C63.1043 100.197 62.9371 100.517 62.7095 100.793C62.4819 101.068 62.1992 101.293 61.8791 101.454C61.559 101.614 61.2088 101.706 60.8509 101.723C60.4931 101.741 60.1352 101.684 59.8008 101.555C56.1003 100.649 52.5448 99.233 49.2371 97.3486C40.8451 92.5829 34.5603 84.8494 31.6309 75.6837C30.0818 71.3139 29.5521 66.6504 30.0818 62.0466C30.6526 58.9038 32.2001 56.0186 34.5061 53.7983C36.8121 51.578 39.7603 50.1347 42.9344 49.6717C46.0435 49.1095 49.2501 49.475 52.151 50.7225C55.0519 51.9701 57.5172 54.044 59.2373 56.6831C60.596 58.775 61.3404 61.2036 61.3856 63.6944C61.3439 65.1237 61.6044 66.5458 62.1503 67.8685C62.6963 69.1911 63.5152 70.3845 64.5544 71.3716C65.8345 72.5696 67.3837 73.4458 69.0729 73.9268C70.7621 74.4078 72.5425 74.4797 74.2653 74.1367C75.9881 73.7936 77.6034 73.0456 78.9768 71.9548C80.3502 70.864 81.4419 69.462 82.1606 67.8659C82.9686 65.3235 83.0783 62.612 82.4778 60.0133C81.8011 54.9969 79.9825 50.2008 77.1607 45.9906C74.3239 41.7323 70.5863 38.1428 66.2097 35.4737C61.7523 32.6418 56.7472 30.773 51.5187 29.9879C46.2902 29.2029 40.9547 29.5192 35.8566 30.9163C30.1928 32.2017 24.9362 34.8623 20.5557 38.6607C16.1751 42.4592 12.8066 47.2776 10.7502 52.6866C9.34009 56.6301 8.71801 60.8102 8.91907 64.9914Z" fill="#74C84D" fill-opacity="0.2"/>
<path d="M22.1577 65.0646C22.1953 70.8177 23.4176 76.5019 25.7494 81.7659C28.0812 87.0299 31.4727 91.7619 35.7144 95.6692C36.1323 96.0065 36.4668 96.4345 36.6927 96.9207C36.9185 97.4068 37.0297 97.9382 37.0172 98.4737C36.9725 98.9422 36.7873 99.3864 36.4859 99.7489C36.1846 100.111 35.781 100.376 35.3271 100.507C34.8962 100.692 34.4183 100.741 33.9585 100.647C33.4987 100.553 33.0792 100.321 32.7566 99.9811C29.8353 97.213 27.2148 94.1462 24.9392 90.8314C21.4289 85.6363 19.0316 79.7768 17.8967 73.6185C16.7699 68.4316 16.7699 63.0649 17.8967 57.8781C19.6425 51.0587 24.0211 45.2006 30.0805 41.5767C35.2547 38.3133 41.3135 36.7173 47.4318 37.0059C53.5501 37.2945 59.4303 39.4536 64.2716 43.1894C67.5597 45.6308 70.2276 48.805 72.062 52.4576C73.8964 56.1102 74.8463 60.1396 74.8353 64.2233C74.8492 64.5548 74.7973 64.8858 74.6827 65.1973C74.5681 65.5088 74.3929 65.7947 74.1673 66.0388C73.9417 66.283 73.6701 66.4806 73.3678 66.6202C73.0655 66.7598 72.7388 66.8387 72.4058 66.8526C72.0729 66.8664 71.7404 66.8147 71.4275 66.7006C71.1146 66.5866 70.8273 66.4124 70.582 66.1878C70.3368 65.9631 70.1385 65.6925 69.9983 65.3916C69.8581 65.0906 69.7788 64.7651 69.7649 64.4336C69.7287 61.528 69.1121 58.6586 67.9514 55.9924C66.7907 53.3262 65.109 50.9165 63.004 48.9036C60.3595 46.3723 57.1807 44.4606 53.6997 43.3079C50.2187 42.1552 46.5233 41.7907 42.8828 42.2408C39.2423 42.691 35.7485 43.9444 32.6565 45.9098C29.5644 47.8751 26.9519 50.5029 25.0097 53.6013C22.9102 57.0448 21.9154 61.0436 22.1577 65.0646Z" fill="#74C84D" fill-opacity="0.2"/>
<path d="M89.2043 39.3689C88.4971 38.9641 87.8463 38.469 87.2679 37.8963C84.8074 34.5366 81.9325 31.4981 78.7111 28.8519C72.4461 23.6933 64.9726 20.196 56.9853 18.6854C45.2926 16.1957 33.0979 17.7023 22.3713 22.9622C15.3531 26.447 9.306 31.6005 4.76507 37.9665C4.59154 38.2927 4.34825 38.5771 4.0524 38.7995C3.75654 39.0219 3.41562 39.1769 3.05302 39.2537C2.69042 39.3306 2.31513 39.3274 1.95392 39.2443C1.59271 39.1612 1.25424 39.0002 0.962285 38.7727C0.686505 38.5438 0.459665 38.2619 0.295605 37.9438C0.131544 37.6258 0.0334679 37.2783 0.0071827 36.9217C-0.0191025 36.5652 0.0269174 36.207 0.142582 35.8686C0.258246 35.5301 0.441496 35.2183 0.68074 34.9517C5.31006 28.5026 11.3245 23.1614 18.2869 19.3164C25.0949 15.6187 32.6017 13.3741 40.3295 12.7257C48.543 11.9284 56.8331 12.8601 64.6614 15.4603C73.989 18.4515 82.2855 23.9903 88.606 31.446C89.6272 32.638 90.613 33.9 91.5637 35.162C91.8475 35.5554 92 36.0275 92 36.5117C92 36.996 91.8475 37.4679 91.5637 37.8612C91.2951 38.2599 90.947 38.5995 90.5411 38.8588C90.1353 39.1181 89.6803 39.2918 89.2043 39.3689Z" fill="#74C84D" fill-opacity="0.2"/>
<path d="M46.244 0C56.8213 0.0408151 67.2286 2.65235 76.5618 7.60743C78.1464 8.41373 78.71 9.71083 78.0762 11.1131C77.9411 11.4669 77.7267 11.7851 77.4495 12.0441C77.1722 12.303 76.8391 12.4957 76.4759 12.6072C76.1126 12.7188 75.7287 12.7463 75.3531 12.6879C74.9775 12.6294 74.6199 12.4864 74.3082 12.2698C70.1823 10.1581 65.8529 8.46677 61.3855 7.22165C54.3763 5.36229 47.0827 4.80386 39.8704 5.57409C32.1241 6.31375 24.6055 8.59036 17.7573 12.2698C17.388 12.5177 16.9611 12.6671 16.5172 12.7039C16.0734 12.7408 15.6271 12.6637 15.2217 12.4801C14.7708 12.2826 14.3876 11.9586 14.1187 11.5477C13.8498 11.1368 13.7071 10.6569 13.7078 10.1665C13.6937 9.69584 13.8199 9.23148 14.0706 8.83219C14.3212 8.43289 14.6853 8.1165 15.1164 7.92282C22.599 3.83437 30.8442 1.31693 39.3425 0.525934C41.6313 0.210425 43.9552 0.140226 46.244 0Z" fill="#74C84D" fill-opacity="0.2"/>
<path d="M71.7738 91.3235C66.6573 91.5577 61.5761 90.3702 57.0987 87.8938C52.6213 85.4174 48.9244 81.7496 46.4211 77.3009C44.2368 73.4511 43.0959 69.102 43.1109 64.6806C43.0967 64.3479 43.1498 64.0157 43.2669 63.7038C43.384 63.3919 43.5628 63.1067 43.7926 62.8648C44.0224 62.6229 44.2987 62.4294 44.605 62.2957C44.9113 62.162 45.2416 62.0908 45.576 62.0864C46.227 62.0739 46.859 62.3044 47.3478 62.7326C47.8366 63.1608 48.1467 63.7556 48.2169 64.4001C48.4639 66.7653 48.8876 69.1089 49.4845 71.4114C50.7864 75.3714 53.2237 78.8656 56.4961 81.4632C59.7685 84.0608 63.7329 85.6484 67.9005 86.0301C70.7309 86.1352 73.5652 86.065 76.3869 85.8198C76.7393 85.7495 77.1021 85.7513 77.4537 85.8256C77.8054 85.8999 78.1382 86.0448 78.4316 86.2516C78.725 86.4584 78.9729 86.7226 79.1602 87.0281C79.3474 87.3336 79.4699 87.6738 79.5204 88.0282C79.5647 88.3764 79.5356 88.7302 79.4348 89.0666C79.3341 89.403 79.164 89.7147 78.9354 89.9819C78.7067 90.2491 78.4247 90.4659 78.1071 90.6185C77.7895 90.771 77.4433 90.8561 77.0909 90.868C75.119 91.0432 73.1119 91.1833 71.7738 91.3235Z" fill="#74C84D" fill-opacity="0.2"/>
</svg>
