<svg width="321" height="60" viewBox="0 0 321 33" fill="none" xmlns="http://www.w3.org/2000/svg">
<path d="M50.4183 23V8.45455H59.4382V10.3438H52.6129V14.7756H58.7919V16.6577H52.6129V23H50.4183ZM61.9666 23V12.0909H64.0902V23H61.9666ZM63.0391 10.4077C62.6697 10.4077 62.3525 10.2846 62.0874 10.0384C61.8269 9.7874 61.6967 9.48911 61.6967 9.14347C61.6967 8.79309 61.8269 8.49479 62.0874 8.24858C62.3525 7.99763 62.6697 7.87216 63.0391 7.87216C63.4084 7.87216 63.7232 7.99763 63.9837 8.24858C64.2488 8.49479 64.3814 8.79309 64.3814 9.14347C64.3814 9.48911 64.2488 9.7874 63.9837 10.0384C63.7232 10.2846 63.4084 10.4077 63.0391 10.4077ZM69.0707 16.5227V23H66.9471V12.0909H68.9854V13.8665H69.1204C69.3713 13.2888 69.7643 12.8248 70.2994 12.4744C70.8391 12.1241 71.5186 11.9489 72.3377 11.9489C73.0811 11.9489 73.7321 12.1051 74.2908 12.4176C74.8496 12.7254 75.2828 13.1847 75.5906 13.7955C75.8983 14.4062 76.0522 15.1615 76.0522 16.0611V23H73.9286V16.3168C73.9286 15.526 73.7227 14.9081 73.3107 14.4631C72.8988 14.0133 72.333 13.7884 71.6133 13.7884C71.1209 13.7884 70.6829 13.8949 70.2994 14.108C69.9206 14.321 69.6199 14.6335 69.3974 15.0455C69.1796 15.4527 69.0707 15.9451 69.0707 16.5227ZM83.4741 27.3182C82.6076 27.3182 81.8619 27.2045 81.2369 26.9773C80.6166 26.75 80.11 26.4493 79.717 26.0753C79.324 25.7012 79.0304 25.2917 78.8363 24.8466L80.6616 24.0938C80.7894 24.3021 80.9599 24.5223 81.1729 24.7543C81.3907 24.991 81.6843 25.1922 82.0536 25.358C82.4277 25.5237 82.9083 25.6065 83.4954 25.6065C84.3003 25.6065 84.9656 25.41 85.4911 25.017C86.0167 24.6288 86.2795 24.0085 86.2795 23.1562V21.0114H86.1445C86.0167 21.2434 85.832 21.5014 85.5906 21.7855C85.3538 22.0696 85.0271 22.3158 84.6104 22.5241C84.1938 22.7325 83.6516 22.8366 82.984 22.8366C82.1223 22.8366 81.3458 22.6354 80.6545 22.233C79.9679 21.8258 79.4234 21.2268 79.021 20.4361C78.6232 19.6406 78.4244 18.6629 78.4244 17.5028C78.4244 16.3428 78.6209 15.3485 79.0138 14.5199C79.4116 13.6913 79.9561 13.0568 80.6474 12.6165C81.3387 12.1714 82.1223 11.9489 82.9982 11.9489C83.6753 11.9489 84.2222 12.0625 84.6388 12.2898C85.0555 12.5123 85.3799 12.7727 85.6119 13.071C85.8486 13.3693 86.0309 13.6321 86.1587 13.8594H86.315V12.0909H88.396V23.2415C88.396 24.179 88.1781 24.9484 87.7425 25.5497C87.3069 26.151 86.7174 26.5961 85.9741 26.8849C85.2354 27.1738 84.4021 27.3182 83.4741 27.3182ZM83.4528 21.0753C84.0636 21.0753 84.5797 20.9332 85.0011 20.6491C85.4272 20.3603 85.7492 19.9484 85.967 19.4134C86.1895 18.8736 86.3008 18.2273 86.3008 17.4744C86.3008 16.7405 86.1919 16.0942 85.9741 15.5355C85.7563 14.9768 85.4367 14.5412 85.0153 14.2287C84.5939 13.9115 84.073 13.7528 83.4528 13.7528C82.8136 13.7528 82.2809 13.9186 81.8548 14.25C81.4286 14.5767 81.1067 15.0218 80.8888 15.5852C80.6758 16.1487 80.5692 16.7784 80.5692 17.4744C80.5692 18.1894 80.6781 18.8168 80.896 19.3565C81.1138 19.8963 81.4357 20.3177 81.8619 20.6207C82.2927 20.9238 82.823 21.0753 83.4528 21.0753ZM95.9457 23.2202C94.8709 23.2202 93.9452 22.9905 93.1687 22.5312C92.3969 22.0672 91.8003 21.4162 91.3789 20.5781C90.9622 19.7353 90.7539 18.7481 90.7539 17.6165C90.7539 16.4991 90.9622 15.5142 91.3789 14.6619C91.8003 13.8097 92.3874 13.1444 93.1403 12.6662C93.8978 12.188 94.7833 11.9489 95.7965 11.9489C96.4121 11.9489 97.0086 12.0507 97.5863 12.2543C98.1639 12.4579 98.6824 12.7775 99.1417 13.2131C99.601 13.6487 99.9632 14.2145 100.228 14.9105C100.493 15.6018 100.626 16.4422 100.626 17.4318V18.1847H91.9542V16.5938H98.5451C98.5451 16.035 98.4315 15.5402 98.2042 15.1094C97.9769 14.6738 97.6573 14.3305 97.2454 14.0795C96.8382 13.8286 96.36 13.7031 95.8107 13.7031C95.2141 13.7031 94.6933 13.8499 94.2482 14.1435C93.8079 14.4323 93.467 14.8111 93.2255 15.2798C92.9888 15.7438 92.8704 16.2481 92.8704 16.7926V18.0355C92.8704 18.7647 92.9982 19.3849 93.2539 19.8963C93.5143 20.4077 93.8765 20.7983 94.3406 21.0682C94.8046 21.3333 95.3467 21.4659 95.967 21.4659C96.3694 21.4659 96.7364 21.4091 97.0678 21.2955C97.3993 21.1771 97.6857 21.0019 97.9272 20.7699C98.1687 20.5379 98.3533 20.2514 98.4812 19.9105L100.491 20.2727C100.33 20.8646 100.041 21.383 99.6246 21.8281C99.2127 22.2685 98.6942 22.6117 98.0692 22.858C97.449 23.0994 96.7411 23.2202 95.9457 23.2202ZM102.982 23V12.0909H105.035V13.8239H105.148C105.347 13.2367 105.698 12.7751 106.2 12.4389C106.706 12.098 107.279 11.9276 107.918 11.9276C108.051 11.9276 108.207 11.9323 108.387 11.9418C108.572 11.9512 108.716 11.9631 108.82 11.9773V14.0085C108.735 13.9848 108.584 13.9588 108.366 13.9304C108.148 13.8973 107.93 13.8807 107.712 13.8807C107.21 13.8807 106.763 13.9872 106.37 14.2003C105.982 14.4086 105.674 14.6998 105.447 15.0739C105.219 15.4432 105.106 15.8646 105.106 16.3381V23H102.982ZM124.126 14.7543L122.201 15.0952C122.121 14.849 121.993 14.6146 121.817 14.392C121.647 14.1695 121.415 13.9872 121.121 13.8452C120.828 13.7031 120.461 13.6321 120.021 13.6321C119.419 13.6321 118.917 13.767 118.515 14.0369C118.112 14.3021 117.911 14.6454 117.911 15.0668C117.911 15.4313 118.046 15.7249 118.316 15.9474C118.586 16.17 119.022 16.3523 119.623 16.4943L121.356 16.892C122.36 17.1241 123.108 17.4815 123.6 17.9645C124.093 18.4474 124.339 19.0748 124.339 19.8466C124.339 20.5 124.149 21.0824 123.771 21.5938C123.397 22.1004 122.873 22.4981 122.201 22.7869C121.533 23.0758 120.759 23.2202 119.879 23.2202C118.657 23.2202 117.66 22.9598 116.888 22.4389C116.117 21.9134 115.643 21.1676 115.468 20.2017L117.521 19.8892C117.648 20.4242 117.911 20.8291 118.309 21.1037C118.707 21.3736 119.225 21.5085 119.864 21.5085C120.56 21.5085 121.117 21.3641 121.533 21.0753C121.95 20.7817 122.158 20.4242 122.158 20.0028C122.158 19.6619 122.031 19.3755 121.775 19.1435C121.524 18.9115 121.138 18.7363 120.617 18.6179L118.771 18.2131C117.753 17.9811 117 17.6117 116.512 17.1051C116.029 16.5985 115.788 15.9569 115.788 15.1804C115.788 14.5365 115.968 13.973 116.327 13.4901C116.687 13.0071 117.184 12.6307 117.819 12.3608C118.453 12.0862 119.18 11.9489 119.999 11.9489C121.178 11.9489 122.106 12.2045 122.783 12.7159C123.46 13.2225 123.908 13.902 124.126 14.7543ZM131.269 23.2202C130.213 23.2202 129.304 22.9811 128.542 22.5028C127.784 22.0199 127.202 21.3546 126.794 20.5071C126.387 19.6596 126.184 18.6889 126.184 17.5952C126.184 16.4872 126.392 15.5095 126.809 14.6619C127.225 13.8097 127.812 13.1444 128.57 12.6662C129.328 12.188 130.22 11.9489 131.248 11.9489C132.076 11.9489 132.815 12.1027 133.463 12.4105C134.112 12.7135 134.635 13.1397 135.033 13.6889C135.435 14.2382 135.675 14.8797 135.75 15.6136H133.684C133.57 15.1023 133.31 14.6619 132.902 14.2926C132.5 13.9233 131.96 13.7386 131.283 13.7386C130.691 13.7386 130.173 13.8949 129.728 14.2074C129.287 14.5152 128.944 14.9555 128.698 15.5284C128.452 16.0966 128.328 16.7689 128.328 17.5455C128.328 18.3409 128.449 19.0275 128.691 19.6051C128.932 20.1828 129.273 20.6302 129.713 20.9474C130.158 21.2647 130.682 21.4233 131.283 21.4233C131.685 21.4233 132.05 21.3499 132.377 21.2031C132.708 21.0516 132.985 20.8362 133.208 20.5568C133.435 20.2775 133.594 19.9413 133.684 19.5483H135.75C135.675 20.2538 135.445 20.8835 135.061 21.4375C134.678 21.9915 134.164 22.4271 133.52 22.7443C132.881 23.0616 132.131 23.2202 131.269 23.2202ZM141.196 23.2415C140.505 23.2415 139.88 23.1136 139.321 22.858C138.762 22.5975 138.32 22.2211 137.993 21.7287C137.671 21.2363 137.51 20.6326 137.51 19.9176C137.51 19.3021 137.628 18.7955 137.865 18.3977C138.102 18 138.421 17.6851 138.824 17.4531C139.226 17.2211 139.676 17.0459 140.173 16.9276C140.67 16.8092 141.177 16.7192 141.693 16.6577C142.347 16.5819 142.877 16.5204 143.284 16.473C143.691 16.4209 143.987 16.3381 144.172 16.2244C144.357 16.1108 144.449 15.9261 144.449 15.6705V15.6207C144.449 15.0005 144.274 14.5199 143.923 14.179C143.578 13.8381 143.062 13.6676 142.375 13.6676C141.66 13.6676 141.097 13.8262 140.685 14.1435C140.277 14.456 139.996 14.804 139.839 15.1875L137.844 14.733C138.08 14.0701 138.426 13.535 138.881 13.1278C139.34 12.7159 139.868 12.4176 140.464 12.233C141.061 12.0436 141.688 11.9489 142.347 11.9489C142.782 11.9489 143.244 12.0009 143.732 12.1051C144.224 12.2045 144.683 12.3892 145.109 12.6591C145.54 12.929 145.893 13.3149 146.168 13.8168C146.442 14.3139 146.58 14.9602 146.58 15.7557V23H144.506V21.5085H144.42C144.283 21.7831 144.077 22.053 143.803 22.3182C143.528 22.5833 143.175 22.8035 142.744 22.9787C142.313 23.1539 141.797 23.2415 141.196 23.2415ZM141.658 21.5369C142.245 21.5369 142.747 21.4209 143.163 21.1889C143.585 20.9569 143.904 20.6539 144.122 20.2798C144.345 19.901 144.456 19.4962 144.456 19.0653V17.6591C144.38 17.7348 144.233 17.8059 144.016 17.8722C143.803 17.9337 143.559 17.9882 143.284 18.0355C143.009 18.0781 142.742 18.1184 142.482 18.1562C142.221 18.1894 142.003 18.2178 141.828 18.2415C141.416 18.2936 141.04 18.3812 140.699 18.5043C140.363 18.6274 140.093 18.8049 139.889 19.0369C139.69 19.2642 139.591 19.5672 139.591 19.946C139.591 20.4716 139.785 20.8693 140.173 21.1392C140.562 21.4044 141.056 21.5369 141.658 21.5369ZM151.532 16.5227V23H149.408V12.0909H151.446V13.8665H151.581C151.832 13.2888 152.225 12.8248 152.76 12.4744C153.3 12.1241 153.98 11.9489 154.799 11.9489C155.542 11.9489 156.193 12.1051 156.752 12.4176C157.31 12.7254 157.744 13.1847 158.051 13.7955C158.359 14.4062 158.513 15.1615 158.513 16.0611V23H156.39V16.3168C156.39 15.526 156.184 14.9081 155.772 14.4631C155.36 14.0133 154.794 13.7884 154.074 13.7884C153.582 13.7884 153.144 13.8949 152.76 14.108C152.382 14.321 152.081 14.6335 151.858 15.0455C151.641 15.4527 151.532 15.9451 151.532 16.5227ZM163.485 16.5227V23H161.361V12.0909H163.4V13.8665H163.534C163.785 13.2888 164.178 12.8248 164.713 12.4744C165.253 12.1241 165.933 11.9489 166.752 11.9489C167.495 11.9489 168.146 12.1051 168.705 12.4176C169.264 12.7254 169.697 13.1847 170.005 13.7955C170.312 14.4062 170.466 15.1615 170.466 16.0611V23H168.343V16.3168C168.343 15.526 168.137 14.9081 167.725 14.4631C167.313 14.0133 166.747 13.7884 166.027 13.7884C165.535 13.7884 165.097 13.8949 164.713 14.108C164.335 14.321 164.034 14.6335 163.811 15.0455C163.594 15.4527 163.485 15.9451 163.485 16.5227ZM178.016 23.2202C176.941 23.2202 176.016 22.9905 175.239 22.5312C174.467 22.0672 173.871 21.4162 173.449 20.5781C173.033 19.7353 172.824 18.7481 172.824 17.6165C172.824 16.4991 173.033 15.5142 173.449 14.6619C173.871 13.8097 174.458 13.1444 175.211 12.6662C175.968 12.188 176.854 11.9489 177.867 11.9489C178.482 11.9489 179.079 12.0507 179.657 12.2543C180.234 12.4579 180.753 12.7775 181.212 13.2131C181.671 13.6487 182.033 14.2145 182.299 14.9105C182.564 15.6018 182.696 16.4422 182.696 17.4318V18.1847H174.025V16.5938H180.615C180.615 16.035 180.502 15.5402 180.275 15.1094C180.047 14.6738 179.728 14.3305 179.316 14.0795C178.908 13.8286 178.43 13.7031 177.881 13.7031C177.284 13.7031 176.764 13.8499 176.319 14.1435C175.878 14.4323 175.537 14.8111 175.296 15.2798C175.059 15.7438 174.941 16.2481 174.941 16.7926V18.0355C174.941 18.7647 175.069 19.3849 175.324 19.8963C175.585 20.4077 175.947 20.7983 176.411 21.0682C176.875 21.3333 177.417 21.4659 178.037 21.4659C178.44 21.4659 178.807 21.4091 179.138 21.2955C179.47 21.1771 179.756 21.0019 179.998 20.7699C180.239 20.5379 180.424 20.2514 180.551 19.9105L182.561 20.2727C182.4 20.8646 182.112 21.383 181.695 21.8281C181.283 22.2685 180.765 22.6117 180.14 22.858C179.519 23.0994 178.811 23.2202 178.016 23.2202ZM189.136 23.2131C188.256 23.2131 187.47 22.9882 186.778 22.5384C186.092 22.0838 185.552 21.4375 185.159 20.5994C184.771 19.7566 184.577 18.7457 184.577 17.5668C184.577 16.3878 184.773 15.3793 185.166 14.5412C185.564 13.7031 186.108 13.0616 186.8 12.6165C187.491 12.1714 188.275 11.9489 189.151 11.9489C189.828 11.9489 190.372 12.0625 190.784 12.2898C191.201 12.5123 191.523 12.7727 191.75 13.071C191.982 13.3693 192.162 13.6321 192.29 13.8594H192.418V8.45455H194.541V23H192.467V21.3026H192.29C192.162 21.5346 191.977 21.7997 191.736 22.098C191.499 22.3963 191.172 22.6567 190.756 22.8793C190.339 23.1018 189.799 23.2131 189.136 23.2131ZM189.605 21.402C190.216 21.402 190.732 21.241 191.153 20.919C191.58 20.5923 191.902 20.1402 192.119 19.5625C192.342 18.9848 192.453 18.3125 192.453 17.5455C192.453 16.7879 192.344 16.125 192.126 15.5568C191.909 14.9886 191.589 14.5459 191.168 14.2287C190.746 13.9115 190.225 13.7528 189.605 13.7528C188.966 13.7528 188.433 13.9186 188.007 14.25C187.581 14.5814 187.259 15.0336 187.041 15.6065C186.828 16.1795 186.722 16.8258 186.722 17.5455C186.722 18.2746 186.83 18.9304 187.048 19.5128C187.266 20.0952 187.588 20.5568 188.014 20.8977C188.445 21.2339 188.975 21.402 189.605 21.402ZM211.04 14.7543L209.115 15.0952C209.035 14.849 208.907 14.6146 208.732 14.392C208.561 14.1695 208.329 13.9872 208.036 13.8452C207.742 13.7031 207.375 13.6321 206.935 13.6321C206.333 13.6321 205.831 13.767 205.429 14.0369C205.027 14.3021 204.825 14.6454 204.825 15.0668C204.825 15.4313 204.96 15.7249 205.23 15.9474C205.5 16.17 205.936 16.3523 206.537 16.4943L208.27 16.892C209.274 17.1241 210.022 17.4815 210.514 17.9645C211.007 18.4474 211.253 19.0748 211.253 19.8466C211.253 20.5 211.063 21.0824 210.685 21.5938C210.311 22.1004 209.787 22.4981 209.115 22.7869C208.447 23.0758 207.673 23.2202 206.793 23.2202C205.571 23.2202 204.574 22.9598 203.803 22.4389C203.031 21.9134 202.557 21.1676 202.382 20.2017L204.435 19.8892C204.563 20.4242 204.825 20.8291 205.223 21.1037C205.621 21.3736 206.139 21.5085 206.778 21.5085C207.474 21.5085 208.031 21.3641 208.447 21.0753C208.864 20.7817 209.072 20.4242 209.072 20.0028C209.072 19.6619 208.945 19.3755 208.689 19.1435C208.438 18.9115 208.052 18.7363 207.531 18.6179L205.685 18.2131C204.667 17.9811 203.914 17.6117 203.426 17.1051C202.943 16.5985 202.702 15.9569 202.702 15.1804C202.702 14.5365 202.882 13.973 203.241 13.4901C203.601 13.0071 204.098 12.6307 204.733 12.3608C205.367 12.0862 206.094 11.9489 206.913 11.9489C208.092 11.9489 209.02 12.2045 209.697 12.7159C210.375 13.2225 210.822 13.902 211.04 14.7543ZM220.498 18.4759V12.0909H222.629V23H220.541V21.1108H220.427C220.176 21.6932 219.774 22.1785 219.22 22.5668C218.671 22.9503 217.986 23.142 217.167 23.142C216.467 23.142 215.846 22.9882 215.306 22.6804C214.771 22.3679 214.35 21.9062 214.042 21.2955C213.739 20.6847 213.588 19.9295 213.588 19.0298V12.0909H215.711V18.7741C215.711 19.5175 215.917 20.1094 216.329 20.5497C216.741 20.9901 217.276 21.2102 217.934 21.2102C218.332 21.2102 218.727 21.1108 219.12 20.9119C219.518 20.7131 219.847 20.4124 220.108 20.0099C220.373 19.6075 220.503 19.0961 220.498 18.4759ZM230.077 23.2202C229.022 23.2202 228.112 22.9811 227.35 22.5028C226.593 22.0199 226.01 21.3546 225.603 20.5071C225.196 19.6596 224.992 18.6889 224.992 17.5952C224.992 16.4872 225.201 15.5095 225.617 14.6619C226.034 13.8097 226.621 13.1444 227.379 12.6662C228.136 12.188 229.029 11.9489 230.056 11.9489C230.885 11.9489 231.623 12.1027 232.272 12.4105C232.921 12.7135 233.444 13.1397 233.842 13.6889C234.244 14.2382 234.483 14.8797 234.559 15.6136H232.492C232.379 15.1023 232.118 14.6619 231.711 14.2926C231.308 13.9233 230.769 13.7386 230.092 13.7386C229.5 13.7386 228.981 13.8949 228.536 14.2074C228.096 14.5152 227.753 14.9555 227.506 15.5284C227.26 16.0966 227.137 16.7689 227.137 17.5455C227.137 18.3409 227.258 19.0275 227.499 19.6051C227.741 20.1828 228.082 20.6302 228.522 20.9474C228.967 21.2647 229.49 21.4233 230.092 21.4233C230.494 21.4233 230.859 21.3499 231.185 21.2031C231.517 21.0516 231.794 20.8362 232.016 20.5568C232.244 20.2775 232.402 19.9413 232.492 19.5483H234.559C234.483 20.2538 234.254 20.8835 233.87 21.4375C233.487 21.9915 232.973 22.4271 232.329 22.7443C231.69 23.0616 230.939 23.2202 230.077 23.2202ZM241.425 23.2202C240.369 23.2202 239.46 22.9811 238.698 22.5028C237.94 22.0199 237.358 21.3546 236.951 20.5071C236.543 19.6596 236.34 18.6889 236.34 17.5952C236.34 16.4872 236.548 15.5095 236.965 14.6619C237.382 13.8097 237.969 13.1444 238.726 12.6662C239.484 12.188 240.376 11.9489 241.404 11.9489C242.232 11.9489 242.971 12.1027 243.62 12.4105C244.268 12.7135 244.792 13.1397 245.189 13.6889C245.592 14.2382 245.831 14.8797 245.907 15.6136H243.84C243.726 15.1023 243.466 14.6619 243.059 14.2926C242.656 13.9233 242.116 13.7386 241.439 13.7386C240.847 13.7386 240.329 13.8949 239.884 14.2074C239.444 14.5152 239.1 14.9555 238.854 15.5284C238.608 16.0966 238.485 16.7689 238.485 17.5455C238.485 18.3409 238.605 19.0275 238.847 19.6051C239.088 20.1828 239.429 20.6302 239.87 20.9474C240.315 21.2647 240.838 21.4233 241.439 21.4233C241.842 21.4233 242.206 21.3499 242.533 21.2031C242.864 21.0516 243.141 20.8362 243.364 20.5568C243.591 20.2775 243.75 19.9413 243.84 19.5483H245.907C245.831 20.2538 245.601 20.8835 245.218 21.4375C244.834 21.9915 244.32 22.4271 243.676 22.7443C243.037 23.0616 242.287 23.2202 241.425 23.2202ZM252.879 23.2202C251.804 23.2202 250.879 22.9905 250.102 22.5312C249.33 22.0672 248.734 21.4162 248.312 20.5781C247.896 19.7353 247.688 18.7481 247.688 17.6165C247.688 16.4991 247.896 15.5142 248.312 14.6619C248.734 13.8097 249.321 13.1444 250.074 12.6662C250.831 12.188 251.717 11.9489 252.73 11.9489C253.346 11.9489 253.942 12.0507 254.52 12.2543C255.098 12.4579 255.616 12.7775 256.075 13.2131C256.535 13.6487 256.897 14.2145 257.162 14.9105C257.427 15.6018 257.56 16.4422 257.56 17.4318V18.1847H248.888V16.5938H255.479C255.479 16.035 255.365 15.5402 255.138 15.1094C254.911 14.6738 254.591 14.3305 254.179 14.0795C253.772 13.8286 253.294 13.7031 252.744 13.7031C252.148 13.7031 251.627 13.8499 251.182 14.1435C250.741 14.4323 250.401 14.8111 250.159 15.2798C249.922 15.7438 249.804 16.2481 249.804 16.7926V18.0355C249.804 18.7647 249.932 19.3849 250.188 19.8963C250.448 20.4077 250.81 20.7983 251.274 21.0682C251.738 21.3333 252.28 21.4659 252.901 21.4659C253.303 21.4659 253.67 21.4091 254.001 21.2955C254.333 21.1771 254.619 21.0019 254.861 20.7699C255.102 20.5379 255.287 20.2514 255.415 19.9105L257.425 20.2727C257.264 20.8646 256.975 21.383 256.558 21.8281C256.146 22.2685 255.628 22.6117 255.003 22.858C254.383 23.0994 253.675 23.2202 252.879 23.2202ZM268.091 14.7543L266.166 15.0952C266.085 14.849 265.958 14.6146 265.782 14.392C265.612 14.1695 265.38 13.9872 265.086 13.8452C264.793 13.7031 264.426 13.6321 263.985 13.6321C263.384 13.6321 262.882 13.767 262.48 14.0369C262.077 14.3021 261.876 14.6454 261.876 15.0668C261.876 15.4313 262.011 15.7249 262.281 15.9474C262.551 16.17 262.986 16.3523 263.588 16.4943L265.321 16.892C266.324 17.1241 267.073 17.4815 267.565 17.9645C268.057 18.4474 268.304 19.0748 268.304 19.8466C268.304 20.5 268.114 21.0824 267.735 21.5938C267.361 22.1004 266.838 22.4981 266.166 22.7869C265.498 23.0758 264.724 23.2202 263.843 23.2202C262.622 23.2202 261.625 22.9598 260.853 22.4389C260.082 21.9134 259.608 21.1676 259.433 20.2017L261.485 19.8892C261.613 20.4242 261.876 20.8291 262.274 21.1037C262.672 21.3736 263.19 21.5085 263.829 21.5085C264.525 21.5085 265.082 21.3641 265.498 21.0753C265.915 20.7817 266.123 20.4242 266.123 20.0028C266.123 19.6619 265.995 19.3755 265.74 19.1435C265.489 18.9115 265.103 18.7363 264.582 18.6179L262.735 18.2131C261.717 17.9811 260.965 17.6117 260.477 17.1051C259.994 16.5985 259.752 15.9569 259.752 15.1804C259.752 14.5365 259.932 13.973 260.292 13.4901C260.652 13.0071 261.149 12.6307 261.784 12.3608C262.418 12.0862 263.145 11.9489 263.964 11.9489C265.143 11.9489 266.071 12.2045 266.748 12.7159C267.425 13.2225 267.873 13.902 268.091 14.7543ZM278.813 14.7543L276.888 15.0952C276.808 14.849 276.68 14.6146 276.505 14.392C276.335 14.1695 276.103 13.9872 275.809 13.8452C275.515 13.7031 275.148 13.6321 274.708 13.6321C274.107 13.6321 273.605 13.767 273.202 14.0369C272.8 14.3021 272.599 14.6454 272.599 15.0668C272.599 15.4313 272.734 15.7249 273.004 15.9474C273.273 16.17 273.709 16.3523 274.31 16.4943L276.043 16.892C277.047 17.1241 277.795 17.4815 278.288 17.9645C278.78 18.4474 279.026 19.0748 279.026 19.8466C279.026 20.5 278.837 21.0824 278.458 21.5938C278.084 22.1004 277.561 22.4981 276.888 22.7869C276.221 23.0758 275.447 23.2202 274.566 23.2202C273.344 23.2202 272.348 22.9598 271.576 22.4389C270.804 21.9134 270.331 21.1676 270.156 20.2017L272.208 19.8892C272.336 20.4242 272.599 20.8291 272.996 21.1037C273.394 21.3736 273.913 21.5085 274.552 21.5085C275.248 21.5085 275.804 21.3641 276.221 21.0753C276.638 20.7817 276.846 20.4242 276.846 20.0028C276.846 19.6619 276.718 19.3755 276.462 19.1435C276.211 18.9115 275.826 18.7363 275.305 18.6179L273.458 18.2131C272.44 17.9811 271.687 17.6117 271.2 17.1051C270.717 16.5985 270.475 15.9569 270.475 15.1804C270.475 14.5365 270.655 13.973 271.015 13.4901C271.375 13.0071 271.872 12.6307 272.506 12.3608C273.141 12.0862 273.868 11.9489 274.687 11.9489C275.866 11.9489 276.794 12.2045 277.471 12.7159C278.148 13.2225 278.595 13.902 278.813 14.7543ZM286.553 12.0909V13.7955H280.388V12.0909H286.553ZM282.078 23V10.8267C282.078 10.1449 282.228 9.57907 282.526 9.12926C282.824 8.67472 283.22 8.33617 283.712 8.11364C284.204 7.88636 284.739 7.77273 285.317 7.77273C285.743 7.77273 286.108 7.80824 286.411 7.87926C286.714 7.94555 286.939 8.0071 287.086 8.06392L286.588 9.78267C286.489 9.75426 286.361 9.72112 286.205 9.68324C286.049 9.64062 285.859 9.61932 285.637 9.61932C285.121 9.61932 284.751 9.74716 284.529 10.0028C284.311 10.2585 284.202 10.6278 284.202 11.1108V23H282.078ZM295.654 18.4759V12.0909H297.785V23H295.697V21.1108H295.583C295.333 21.6932 294.93 22.1785 294.376 22.5668C293.827 22.9503 293.143 23.142 292.324 23.142C291.623 23.142 291.002 22.9882 290.463 22.6804C289.928 22.3679 289.506 21.9062 289.199 21.2955C288.895 20.6847 288.744 19.9295 288.744 19.0298V12.0909H290.868V18.7741C290.868 19.5175 291.074 20.1094 291.485 20.5497C291.897 20.9901 292.432 21.2102 293.091 21.2102C293.488 21.2102 293.884 21.1108 294.277 20.9119C294.674 20.7131 295.003 20.4124 295.264 20.0099C295.529 19.6075 295.659 19.0961 295.654 18.4759ZM302.762 8.45455V23H300.638V8.45455H302.762ZM307.743 8.45455V23H305.619V8.45455H307.743ZM311.942 27.0909C311.625 27.0909 311.336 27.0649 311.075 27.0128C310.815 26.9654 310.621 26.9134 310.493 26.8565L311.004 25.1165C311.393 25.2206 311.738 25.2656 312.041 25.2514C312.344 25.2372 312.612 25.1236 312.844 24.9105C313.08 24.6974 313.289 24.3494 313.469 23.8665L313.732 23.142L309.74 12.0909H312.013L314.776 20.5568H314.889L317.652 12.0909H319.932L315.436 24.456C315.228 25.0241 314.963 25.5047 314.641 25.8977C314.319 26.2955 313.935 26.5938 313.49 26.7926C313.045 26.9915 312.529 27.0909 311.942 27.0909Z" fill="#A8D9B5"/>
<path d="M12.9349 7.9332C9.439 8.38361 6.25141 10.1646 4.03544 12.9057C2.51992 14.7247 1.58599 16.9571 1.35458 19.3133C1.12391 22.0145 1.50411 24.733 2.46701 27.2673C2.51153 27.4291 2.5882 27.5802 2.69257 27.7116C2.79694 27.843 2.9269 27.952 3.07442 28.032C3.22195 28.112 3.38399 28.1614 3.55106 28.1771C3.71814 28.1929 3.88669 28.1747 4.04658 28.1238C4.20011 28.0778 4.34262 28.0008 4.4651 27.8975C4.58758 27.7941 4.68744 27.6667 4.75855 27.5231C4.84 27.349 4.88226 27.1591 4.88226 26.9669C4.88226 26.7747 4.84 26.5848 4.75855 26.4107C4.10043 24.6759 3.7577 22.8374 3.74634 20.982C3.69708 19.7168 3.89731 18.4542 4.33582 17.2664C4.96243 15.6092 5.98908 14.1326 7.32439 12.9681C8.65971 11.8035 10.2623 10.9872 11.9894 10.5919C13.5452 10.1618 15.1741 10.0633 16.7704 10.3029C18.3667 10.5424 19.8949 11.1146 21.256 11.9824C22.5885 12.7945 23.7275 13.888 24.5933 15.1862C25.4436 16.4645 25.9984 17.9161 26.2174 19.4357C26.387 20.19 26.3603 20.9752 26.1396 21.7162C25.9563 22.1553 25.6674 22.5424 25.2987 22.8431C24.93 23.1439 24.4929 23.3491 24.0259 23.4405C23.5427 23.5488 23.0404 23.5385 22.5619 23.4107C22.0835 23.2828 21.643 23.0412 21.2781 22.7062C20.9886 22.4305 20.7607 22.0967 20.6092 21.7267C20.4577 21.3567 20.3863 20.9589 20.3994 20.5593C20.3835 19.7039 20.125 18.8706 19.654 18.1564C19.0735 17.2435 18.235 16.5235 17.2447 16.0878C16.2545 15.6521 15.1571 15.5203 14.0919 15.7091C12.9947 15.8661 11.9748 16.3642 11.1762 17.1328C10.3777 17.9014 9.84096 18.9016 9.64214 19.9919C9.46498 21.5159 9.63622 23.0602 10.1428 24.5084C11.1133 27.5122 13.1729 30.0441 15.9163 31.6057C16.983 32.226 18.133 32.6905 19.3314 32.9851C19.4715 33.0061 19.614 33.0061 19.7541 32.9851C20.0375 32.99 20.3121 32.8866 20.5217 32.6959C20.6738 32.557 20.7898 32.383 20.8596 32.1892C20.9294 31.9954 20.9508 31.7875 20.9222 31.5835C20.865 31.3579 20.7512 31.1506 20.5915 30.9812C20.4319 30.8119 20.2319 30.686 20.0101 30.6156L19.387 30.4154C18.9282 30.2773 18.4786 30.1102 18.041 29.9148C16.2606 29.1378 14.7446 27.8595 13.678 26.2358C12.6113 24.6122 12.0401 22.7133 12.0339 20.7706C12.0164 20.4149 12.0816 20.06 12.2244 19.7338C12.3673 19.4076 12.5838 19.119 12.8571 18.8906C13.296 18.4589 13.8578 18.1737 14.4653 18.0742C15.0728 17.9746 15.6963 18.0655 16.25 18.3344C16.7679 18.5447 17.2081 18.9097 17.5108 19.3795C17.8134 19.8494 17.9636 20.4013 17.9408 20.9597C17.959 21.4805 18.0604 21.995 18.2412 22.4837C18.7509 23.7717 19.7301 24.8185 20.9811 25.413C22.2322 26.0076 23.6621 26.1057 24.9826 25.6876C25.998 25.3875 26.8986 24.7868 27.5658 23.9647C28.2331 23.1425 28.6356 22.1376 28.7204 21.0821C28.7776 19.2106 28.3967 17.3516 27.6079 15.6535C26.3083 12.9676 24.1822 10.7687 21.5416 9.37928C18.9009 7.98989 15.8846 7.48311 12.9349 7.9332Z" fill="#A8D9B5"/>
<path d="M7.90837 21.059C7.86594 19.8843 8.17159 18.7232 8.7871 17.7217C9.36721 16.7925 10.1473 16.0043 11.0706 15.4148C11.9939 14.8252 13.037 14.449 14.1241 14.3137C15.2112 14.1783 16.3147 14.2872 17.3544 14.6324C18.394 14.9776 19.3437 15.5503 20.134 16.3089C20.7657 16.9065 21.2705 17.6253 21.6183 18.4223C21.9662 19.2193 22.1499 20.0782 22.1585 20.9477C22.1633 21.2824 22.2991 21.602 22.5367 21.8377C22.7856 22.0464 23.1021 22.1571 23.4267 22.1492C23.589 22.1436 23.7484 22.1055 23.8956 22.0371C24.0428 21.9687 24.1748 21.8714 24.2837 21.7511C24.3927 21.6307 24.4764 21.4897 24.5298 21.3364C24.5832 21.1832 24.6054 21.0208 24.5948 20.8588C24.5936 19.4959 24.2717 18.1524 23.6553 16.9368C23.0388 15.7213 22.145 14.6678 21.0461 13.8615C19.4507 12.6252 17.5137 11.9098 15.4977 11.8123C13.4817 11.7148 11.4844 12.2399 9.77718 13.3165C7.77127 14.5212 6.32054 16.4675 5.73905 18.734C5.37214 20.4388 5.37214 22.2021 5.73905 23.9068C6.11437 25.9243 6.90631 27.8414 8.06412 29.5357C8.794 30.6125 9.63669 31.6082 10.5781 32.5059C10.6828 32.6157 10.8089 32.703 10.9485 32.7623C11.0882 32.8216 11.2386 32.8517 11.3903 32.8508C11.542 32.8512 11.6926 32.8248 11.8351 32.7729C12.0487 32.7006 12.2375 32.5693 12.3793 32.394C12.5211 32.2187 12.6102 32.0068 12.6362 31.7829C12.6543 31.5502 12.6162 31.3166 12.5253 31.1017C12.4343 30.8868 12.2929 30.6969 12.1133 30.548C10.7989 29.3394 9.74747 27.8733 9.02406 26.2408C8.30065 24.6084 7.9209 22.8445 7.90837 21.059Z" fill="#66B97D"/>
<path d="M29.7665 11.3131C29.455 10.9126 29.1436 10.501 28.821 10.1228C26.759 7.69811 24.0626 5.89542 21.034 4.91659C18.5032 4.07423 15.8234 3.7748 13.1691 4.0378C10.6736 4.24857 8.24903 4.9759 6.04954 6.17365C3.7712 7.41428 1.80454 9.15648 0.298227 11.2686C0.189997 11.3954 0.108313 11.5426 0.0580058 11.7015C0.00769847 11.8604 -0.0101065 12.0278 0.0054532 12.1938C0.0210129 12.3597 0.0696113 12.521 0.148581 12.6678C0.227551 12.8146 0.335209 12.944 0.465119 13.0485C0.585074 13.151 0.725464 13.2268 0.876984 13.271C1.0285 13.3151 1.18773 13.3264 1.34398 13.3043C1.5287 13.2709 1.70472 13.2005 1.8615 13.0973C2.01827 12.994 2.15249 12.8601 2.25612 12.7036C3.66774 10.7389 5.5393 9.15002 7.70706 8.07593C11.0181 6.45092 14.7788 5.98474 18.3864 6.75213C20.8386 7.22316 23.1335 8.30176 25.061 9.8892C26.0494 10.71 26.9347 11.6475 27.6974 12.6813C27.8399 12.8562 28.0134 13.0033 28.2092 13.1152L28.3871 13.2376L28.5317 13.3488H28.7209C28.9469 13.3324 29.1658 13.2623 29.3593 13.1443C29.5528 13.0262 29.7153 12.8638 29.8333 12.6703C29.9737 12.4685 30.0433 12.2258 30.0312 11.9803C30.0191 11.7348 29.926 11.5001 29.7665 11.3131Z" fill="#A8D9B5"/>
<path d="M5.10337 4.70589C5.26541 4.7891 5.44408 4.83472 5.62618 4.83938C5.86585 4.83226 6.0996 4.76329 6.30475 4.63915C10.4388 2.4426 15.2482 1.88265 19.7763 3.07065C21.1588 3.46254 22.5 3.98782 23.781 4.63915C23.9377 4.72999 24.1113 4.78771 24.2912 4.80876C24.471 4.82981 24.6533 4.81371 24.8267 4.7615C24.9845 4.70446 25.1291 4.61587 25.2515 4.50112C25.3739 4.38636 25.4716 4.24786 25.5387 4.09407C25.6091 3.94381 25.6476 3.7806 25.6518 3.61472C25.656 3.44883 25.6259 3.28383 25.5632 3.1302C25.5005 2.97657 25.4066 2.83763 25.2875 2.72207C25.1684 2.60651 25.0267 2.51683 24.8713 2.45876C21.8679 0.826437 18.5001 -0.0192625 15.0818 0.000332933H14.4033L12.8904 0.0892785C10.1582 0.351704 7.50837 1.1694 5.10337 2.49217C4.89462 2.59086 4.71973 2.74922 4.60093 2.94722C4.48213 3.14521 4.42478 3.37396 4.43594 3.6046C4.4351 3.83181 4.49688 4.05484 4.61464 4.24915C4.73241 4.44346 4.90156 4.6015 5.10337 4.70589Z" fill="#A8D9B5"/>
<path d="M24.6049 27.1776H23.9596C23.3001 27.2164 22.6389 27.2164 21.9794 27.1776C20.7454 27.0598 19.5723 26.586 18.6026 25.8138C17.6329 25.0416 16.9085 24.0042 16.5175 22.8279C16.3839 22.3201 16.2872 21.8034 16.2282 21.2817C16.2282 21.0703 16.1726 20.8589 16.1281 20.6476C16.0927 20.3418 15.9462 20.0595 15.7165 19.8545C15.4869 19.6494 15.19 19.5358 14.8821 19.5352C14.7229 19.5365 14.5657 19.5698 14.4196 19.6331C14.2735 19.6963 14.1416 19.7882 14.0316 19.9034C13.9217 20.0185 13.8359 20.1545 13.7794 20.3033C13.723 20.4522 13.697 20.6109 13.703 20.7699C13.6951 22.2489 14.0789 23.7035 14.8154 24.986C15.6387 26.4776 16.8622 27.7096 18.3481 28.543C19.8341 29.3764 21.5233 29.7781 23.2253 29.7028H23.6148C24.0041 29.7028 24.4602 29.6249 24.9274 29.5582C25.0924 29.5416 25.2525 29.4922 25.3982 29.413C25.5439 29.3338 25.6723 29.2263 25.776 29.0967C25.8796 28.9672 25.9563 28.8184 26.0016 28.6588C26.047 28.4992 26.0599 28.3323 26.0398 28.1676C25.9725 27.8504 25.7863 27.571 25.5194 27.3869C25.2525 27.2027 24.9253 27.1278 24.6049 27.1776Z" fill="#A8D9B5"/>
</svg>
