<svg width="105" height="133" viewBox="0 0 105 133" fill="none" xmlns="http://www.w3.org/2000/svg">
<g clip-path="url(#clip0_1789_78468)">
<path d="M0.0683136 65.4747C0.0834961 63.314 0.0970001 61.1533 0.10881 58.9926C0.1147 58.6695 0.14772 58.3475 0.207497 58.0299C0.667786 55.113 2.27119 52.4972 4.66577 50.7565C7.19601 48.8941 9.87049 48.1582 12.6411 48.5665C13.9771 48.763 15.2827 49.0705 16.5478 49.3679L16.7502 49.4158C17.0436 48.293 17.4488 47.2022 17.9596 46.1596C19.2501 43.6873 21.7702 41.6636 24.6952 40.7487C26.0671 40.299 27.5152 40.1253 28.9551 40.2378C30.395 40.3503 31.7981 40.7467 33.0829 41.404C33.4827 41.6106 33.8749 41.8299 34.2595 42.0491C37.8322 36.6458 42.8623 34.9673 48.9349 37.1272V33.5031C48.9349 29.7706 48.9349 25.9121 48.9501 22.1167C48.9481 21.2327 49.0329 20.3506 49.2031 19.483C50.405 13.5706 55.969 9.60122 62.1428 10.2439C65.2828 10.574 67.9623 12.1214 70.1155 14.8458C71.6716 16.8166 72.4611 19.2361 72.4611 22.0386C72.4611 32.2119 72.4611 37.6789 72.4611 47.8556V53.1884C72.4688 53.4722 72.4544 53.7561 72.4181 54.0377C72.3068 54.9231 71.8801 55.7394 71.2156 56.3379C70.5511 56.9364 69.6929 57.2774 68.7973 57.2989C67.0413 57.2989 65.5662 55.948 65.2929 54.0982C65.2015 53.5034 65.1524 52.9029 65.1461 52.3013C65.1461 49.7508 65.1461 51.9083 65.1461 49.3578V46.7343C65.1461 44.5501 65.1461 42.3726 65.1461 40.2018C65.1461 34.2692 65.1461 28.135 65.131 22.1041C65.131 20.3727 64.5971 19.1831 63.4686 18.3641C61.867 17.1997 60.4323 17.2854 59.5239 17.5626C58.8587 17.7706 58.2507 18.129 57.7477 18.61C57.2446 19.0909 56.8601 19.6813 56.6243 20.3349C56.3283 21.1388 56.1815 22.1898 56.179 23.5456C56.1511 36.0309 56.1537 48.7278 56.1537 61.0063V71.1704C56.1537 71.2863 56.1537 71.4022 56.1537 71.5182C56.1537 71.9088 56.1537 72.3146 56.1284 72.743C56.1107 73.332 55.9461 73.9073 55.6494 74.4171C55.3526 74.9268 54.9331 75.355 54.4287 75.6628C53.9243 75.9707 53.3508 76.1486 52.7601 76.1805C52.1694 76.2123 51.58 76.0972 51.0451 75.8454C50.0836 75.4447 48.94 74.5072 48.94 72.3171V68.8644C48.94 62.211 48.9399 55.3333 48.9172 48.569C48.9072 47.8053 48.7748 47.0481 48.525 46.326C48.298 45.6315 47.8937 45.0078 47.3516 44.516C46.8095 44.0242 46.1483 43.6813 45.433 43.521C44.7095 43.3576 43.9559 43.3819 43.2445 43.5915C42.533 43.8011 41.8874 44.189 41.3695 44.7181C40.327 45.7615 39.8387 47.1123 39.8336 48.9722C39.8336 54.2949 39.8336 59.7059 39.8336 64.9404V72.5943C39.8336 74.6256 38.5685 75.9765 36.5645 76.1226C34.5985 76.2612 33.0753 75.0591 32.7692 73.1286C32.6766 72.5509 32.6283 71.9671 32.625 71.3821C32.625 68.4637 32.625 65.5461 32.625 62.6293C32.625 59.4774 32.625 56.3254 32.625 53.1734C32.6308 52.5366 32.5936 51.9 32.5136 51.2681C32.2606 49.5393 31.3624 48.4052 29.7455 47.8003C29.071 47.5434 28.3435 47.455 27.6268 47.5429C26.91 47.6307 26.2258 47.8922 25.6339 48.3044C25.0168 48.7243 24.5124 49.2885 24.1648 49.9475C23.8172 50.6065 23.6371 51.3403 23.6401 52.0847C23.6401 56.4665 23.6401 60.8484 23.6401 65.2302C23.6401 67.4144 23.6401 69.6053 23.6401 71.803V71.9819C23.6492 72.3075 23.6357 72.6334 23.5996 72.9572C23.3465 74.8827 21.9777 76.0899 20.0193 76.11H19.9737C18.1317 76.11 16.7628 74.923 16.4744 73.0858C16.3762 72.4662 16.3237 71.8404 16.3175 71.2132C16.3175 69.5566 16.3175 67.8991 16.3175 66.2408C16.3175 64.1541 16.3175 61.9967 16.3175 59.8772C16.3357 59.2145 16.1874 58.5578 15.886 57.9667C15.5847 57.3757 15.1398 56.8689 14.5919 56.4926C14.1252 56.1409 13.593 55.8852 13.0262 55.7403C12.4594 55.5955 11.8693 55.5644 11.2903 55.6488C10.7113 55.7332 10.1549 55.9315 9.65356 56.2322C9.15221 56.5328 8.71593 56.9297 8.37006 57.3999C7.65652 58.3273 7.35796 59.4866 7.35796 61.281C7.35796 70.122 7.40855 79.2049 7.47434 89.0489C7.474 90.6483 7.55846 92.2467 7.72736 93.8373C8.22908 98.3027 9.66785 102.613 11.9503 106.489C14.2364 110.388 17.1329 113.898 20.5304 116.887C23.9795 119.98 28.0262 122.338 32.4225 123.818C37.0832 125.368 41.9944 125.935 47.4395 125.554C50.2163 125.375 52.9693 124.929 55.6603 124.224C61.4518 122.725 66.7293 119.695 70.9353 115.456C72.6014 113.753 74.1089 111.903 75.4392 109.929C76.8333 107.913 78.1086 105.7 79.3408 103.573L80.0265 102.388C82.4378 98.2502 84.9681 93.8575 88.227 88.1466C89.5579 85.8163 90.8829 83.4817 92.202 81.1429C93.7607 78.3883 95.3699 75.5404 96.9741 72.7455C98.2974 70.4319 97.8976 67.7555 95.9974 66.2358C94.2262 64.8119 92.1717 64.6757 90.2259 65.8477C89.3327 66.387 88.642 67.2817 87.9133 68.2293L87.7032 68.4989C83.1817 74.3257 78.7791 79.9887 74.6168 85.3265C73.706 86.4959 72.6382 87.8467 71.5274 89.1598C70.5153 90.3443 68.9972 90.6719 67.4537 90.0444C66.0292 89.4597 65.3055 88.2575 65.303 86.4707C65.303 80.9396 65.303 75.4086 65.303 69.8775V66.6617C65.3003 66.4699 65.3079 66.2781 65.3258 66.0871C65.383 65.5335 65.5699 65.0009 65.8715 64.5325C66.1732 64.064 66.581 63.6726 67.0623 63.3899C67.5436 63.1071 68.0849 62.941 68.6424 62.9047C69.2 62.8685 69.7583 62.9632 70.2724 63.1813C71.3427 63.6273 72.618 64.6606 72.6255 67.0397C72.6255 70.0312 72.6255 73.0681 72.6255 76.0143L74.3233 73.8166C77.1952 70.0942 80.1631 66.2559 83.1513 62.5058C85.8865 59.0834 89.563 57.4805 93.7784 57.8636C97.098 58.1685 99.8509 59.5294 101.979 61.8959C103.668 63.815 104.716 66.2103 104.976 68.7494C105.236 71.2884 104.696 73.8452 103.431 76.0647C102.51 77.7003 101.556 79.341 100.648 80.9388C100.005 82.0477 99.3651 83.1583 98.7275 84.2705C97.2954 86.7773 95.8616 89.2866 94.4261 91.7985C93.3111 93.7609 92.1936 95.7233 91.0735 97.6857L90.0969 99.3969C87.9082 103.233 85.6462 107.21 83.4069 111.096C81.0627 115.177 78.0567 118.844 74.5106 121.948C71.2258 124.801 67.5452 127.167 63.5825 128.974C58.5401 131.294 53.1 132.635 47.5534 132.926C46.7639 132.969 45.9618 132.989 45.1522 132.989C42.7027 132.984 40.257 132.8 37.8347 132.437C31.5005 131.535 25.4446 129.25 20.1003 125.746C16.105 123.11 12.5627 119.821 9.27587 115.695C3.94212 109.004 0.964027 101.441 0.420029 93.2098C0.167 89.3185 0.0430145 86.322 0.0379486 83.4918C-0.0253067 77.4936 0.027832 71.3821 0.0683136 65.4747Z" fill="#D7D7D7"/>
<path d="M34.9755 19.2125C34.3951 19.3844 33.7922 19.4693 33.1867 19.4645C29.813 19.4645 26.4343 19.4645 23.0505 19.4645H18.3164C18.6352 19.7669 18.9515 20.0719 19.2703 20.3793C20.2369 21.3169 21.1781 22.262 22.2914 23.3885C23.01 24.1143 23.6527 24.7847 24.2498 25.4374C25.7174 27.0302 25.682 29.1472 24.1663 30.5888C23.4842 31.2803 22.5585 31.6798 21.5855 31.7027C20.6042 31.6794 19.6701 31.2784 18.9793 30.5837L18.6378 30.2637C18.319 29.9663 17.9875 29.6563 17.6611 29.3312C13.8227 25.4929 10.3588 22.0225 6.82405 18.4715C5.15661 16.7981 5.13385 14.8071 6.76332 13.1438C9.51876 10.3312 12.2489 7.59927 14.5565 5.29074C15.7938 4.05583 17.0665 2.82344 18.2987 1.63389L18.8199 1.12984C19.4975 0.441182 20.4145 0.0376746 21.3819 0.00250742C22.3493 -0.0326598 23.2934 0.303193 24.0196 0.940825C25.477 2.20094 25.6415 4.24736 24.4168 5.92835C24.2294 6.18118 24.0221 6.41882 23.7969 6.63906L22.4129 8.03023C21.082 9.37099 19.7081 10.7546 18.3266 12.1029H20.581C24.7643 12.1029 28.9451 12.1029 33.1234 12.1029C33.7827 12.1038 34.4376 12.2084 35.0641 12.4129C35.7944 12.6416 36.4313 13.0986 36.8802 13.7163C37.3292 14.3339 37.5662 15.0793 37.5563 15.8417C37.5463 16.6042 37.2899 17.3431 36.825 17.949C36.3602 18.5548 35.7116 18.9952 34.9755 19.2049V19.2125Z" fill="#74C84D"/>
</g>
<defs>
<clipPath id="clip0_1789_78468">
<rect width="105" height="133" fill="white" transform="matrix(-1 0 0 1 105 0)"/>
</clipPath>
</defs>
</svg>
