  <svg width="105" height="133" viewBox="0 0 105 133" fill="none" xmlns="http://www.w3.org/2000/svg">
            <g clip-path="url(#clip0_1789_78403)">
            <path d="M104.932 65.4747C104.917 63.314 104.903 61.1533 104.891 58.9926C104.885 58.6695 104.852 58.3475 104.793 58.0299C104.332 55.113 102.729 52.4972 100.334 50.7565C97.804 48.8941 95.1295 48.1582 92.3589 48.5665C91.0229 48.763 89.7173 49.0705 88.4522 49.3679L88.2498 49.4158C87.9564 48.293 87.5512 47.2022 87.0404 46.1596C85.7499 43.6873 83.2298 41.6636 80.3048 40.7487C78.9329 40.299 77.4848 40.1253 76.0449 40.2378C74.605 40.3503 73.2019 40.7467 71.9171 41.404C71.5173 41.6106 71.1251 41.8299 70.7405 42.0491C67.1678 36.6458 62.1377 34.9673 56.0651 37.1272V33.5031C56.0651 29.7706 56.0651 25.9121 56.0499 22.1167C56.0519 21.2327 55.9671 20.3506 55.7969 19.483C54.595 13.5706 49.031 9.60122 42.8572 10.2439C39.7172 10.574 37.0377 12.1214 34.8845 14.8458C33.3284 16.8166 32.5389 19.2361 32.5389 22.0386C32.5389 32.2119 32.5389 37.6789 32.5389 47.8556V53.1884C32.5312 53.4722 32.5456 53.7561 32.5819 54.0377C32.6932 54.9231 33.1199 55.7394 33.7844 56.3379C34.4489 56.9364 35.3071 57.2774 36.2027 57.2989C37.9587 57.2989 39.4338 55.948 39.7071 54.0982C39.7985 53.5034 39.8476 52.9029 39.8539 52.3013C39.8539 49.7508 39.8539 51.9083 39.8539 49.3578V46.7343C39.8539 44.5501 39.8539 42.3726 39.8539 40.2018C39.8539 34.2692 39.8539 28.135 39.869 22.1041C39.869 20.3727 40.4029 19.1831 41.5314 18.3641C43.133 17.1997 44.5677 17.2854 45.4761 17.5626C46.1413 17.7706 46.7493 18.129 47.2523 18.61C47.7554 19.0909 48.1399 19.6813 48.3757 20.3349C48.6717 21.1388 48.8185 22.1898 48.821 23.5456C48.8489 36.0309 48.8463 48.7278 48.8463 61.0063V71.1704C48.8463 71.2863 48.8463 71.4022 48.8463 71.5182C48.8463 71.9088 48.8463 72.3146 48.8716 72.743C48.8893 73.332 49.0539 73.9073 49.3506 74.4171C49.6474 74.9268 50.0669 75.355 50.5713 75.6628C51.0757 75.9707 51.6492 76.1486 52.2399 76.1805C52.8306 76.2123 53.42 76.0972 53.9549 75.8454C54.9164 75.4447 56.06 74.5072 56.06 72.3171V68.8644C56.06 62.211 56.0601 55.3333 56.0828 48.569C56.0928 47.8053 56.2252 47.0481 56.475 46.326C56.702 45.6315 57.1063 45.0078 57.6484 44.516C58.1905 44.0242 58.8517 43.6813 59.567 43.521C60.2905 43.3576 61.0441 43.3819 61.7555 43.5915C62.467 43.8011 63.1126 44.189 63.6305 44.7181C64.673 45.7615 65.1613 47.1123 65.1664 48.9722C65.1664 54.2949 65.1664 59.7059 65.1664 64.9404V72.5943C65.1664 74.6256 66.4315 75.9765 68.4355 76.1226C70.4015 76.2612 71.9247 75.0591 72.2308 73.1286C72.3234 72.5509 72.3717 71.9671 72.375 71.3821C72.375 68.4637 72.375 65.5461 72.375 62.6293C72.375 59.4774 72.375 56.3254 72.375 53.1734C72.3692 52.5366 72.4064 51.9 72.4864 51.2681C72.7394 49.5393 73.6376 48.4052 75.2545 47.8003C75.929 47.5434 76.6565 47.455 77.3732 47.5429C78.09 47.6307 78.7742 47.8922 79.3661 48.3044C79.9832 48.7243 80.4876 49.2885 80.8352 49.9475C81.1828 50.6065 81.3629 51.3403 81.3599 52.0847C81.3599 56.4665 81.3599 60.8484 81.3599 65.2302C81.3599 67.4144 81.3599 69.6053 81.3599 71.803V71.9819C81.3508 72.3075 81.3643 72.6334 81.4004 72.9572C81.6535 74.8827 83.0223 76.0899 84.9807 76.11H85.0263C86.8683 76.11 88.2372 74.923 88.5256 73.0858C88.6238 72.4662 88.6763 71.8404 88.6825 71.2132C88.6825 69.5566 88.6825 67.8991 88.6825 66.2408C88.6825 64.1541 88.6825 61.9967 88.6825 59.8772C88.6643 59.2145 88.8126 58.5578 89.114 57.9667C89.4153 57.3757 89.8602 56.8689 90.4081 56.4926C90.8748 56.1409 91.407 55.8852 91.9738 55.7403C92.5406 55.5955 93.1307 55.5644 93.7097 55.6488C94.2887 55.7332 94.8451 55.9315 95.3464 56.2322C95.8478 56.5328 96.2841 56.9297 96.6299 57.3999C97.3435 58.3273 97.642 59.4866 97.642 61.281C97.642 70.122 97.5914 79.2049 97.5257 89.0489C97.526 90.6483 97.4415 92.2467 97.2726 93.8373C96.7709 98.3027 95.3322 102.613 93.0497 106.489C90.7636 110.388 87.8671 113.898 84.4696 116.887C81.0205 119.98 76.9738 122.338 72.5775 123.818C67.9168 125.368 63.0056 125.935 57.5605 125.554C54.7837 125.375 52.0307 124.929 49.3397 124.224C43.5482 122.725 38.2707 119.695 34.0647 115.456C32.3986 113.753 30.8911 111.903 29.5608 109.929C28.1667 107.913 26.8914 105.7 25.6592 103.573L24.9735 102.388C22.5622 98.2502 20.0319 93.8575 16.773 88.1466C15.4421 85.8163 14.1171 83.4817 12.798 81.1429C11.2393 78.3883 9.63012 75.5404 8.02594 72.7455C6.70263 70.4319 7.1024 67.7555 9.00261 66.2358C10.7738 64.8119 12.8283 64.6757 14.7741 65.8477C15.6673 66.387 16.358 67.2817 17.0867 68.2293L17.2968 68.4989C21.8183 74.3257 26.2209 79.9887 30.3832 85.3265C31.294 86.4959 32.3618 87.8467 33.4726 89.1598C34.4847 90.3443 36.0028 90.6719 37.5463 90.0444C38.9708 89.4597 39.6945 88.2575 39.697 86.4707C39.697 80.9396 39.697 75.4086 39.697 69.8775V66.6617C39.6997 66.4699 39.6921 66.2781 39.6742 66.0871C39.617 65.5335 39.4301 65.0009 39.1285 64.5325C38.8268 64.064 38.419 63.6726 37.9377 63.3899C37.4564 63.1071 36.9151 62.941 36.3576 62.9047C35.8 62.8685 35.2417 62.9632 34.7276 63.1813C33.6573 63.6273 32.382 64.6606 32.3745 67.0397C32.3745 70.0312 32.3745 73.0681 32.3745 76.0143L30.6767 73.8166C27.8048 70.0942 24.8369 66.2559 21.8487 62.5058C19.1135 59.0834 15.437 57.4805 11.2216 57.8636C7.90196 58.1685 5.14905 59.5294 3.02112 61.8959C1.3318 63.815 0.284286 66.2103 0.0240218 68.7494C-0.236242 71.2884 0.30366 73.8452 1.56876 76.0647C2.48977 77.7003 3.44367 79.341 4.35203 80.9388C4.99471 82.0477 5.63487 83.1583 6.27249 84.2705C7.7046 86.7773 9.13841 89.2866 10.5739 91.7985C11.6889 93.7609 12.8064 95.7233 13.9265 97.6857L14.9031 99.3969C17.0918 103.233 19.3538 107.21 21.5931 111.096C23.9373 115.177 26.9433 118.844 30.4894 121.948C33.7742 124.801 37.4548 127.167 41.4175 128.974C46.4599 131.294 51.9 132.635 57.4466 132.926C58.2361 132.969 59.0382 132.989 59.8478 132.989C62.2973 132.984 64.743 132.8 67.1653 132.437C73.4995 131.535 79.5554 129.25 84.8997 125.746C88.895 123.11 92.4373 119.821 95.7241 115.695C101.058 109.004 104.036 101.441 104.58 93.2098C104.833 89.3185 104.957 86.322 104.962 83.4918C105.025 77.4936 104.972 71.3821 104.932 65.4747Z" fill="#D7D7D7"/>
            <path d="M70.0245 19.2125C70.6049 19.3844 71.2078 19.4693 71.8133 19.4645C75.187 19.4645 78.5657 19.4645 81.9495 19.4645H86.6836C86.3648 19.7669 86.0485 20.0719 85.7297 20.3793C84.7631 21.3169 83.8219 22.262 82.7086 23.3885C81.99 24.1143 81.3473 24.7847 80.7502 25.4374C79.2826 27.0302 79.318 29.1472 80.8337 30.5888C81.5158 31.2803 82.4415 31.6798 83.4145 31.7027C84.3958 31.6794 85.3299 31.2784 86.0207 30.5837L86.3622 30.2637C86.681 29.9663 87.0125 29.6563 87.3389 29.3312C91.1773 25.4929 94.6412 22.0225 98.176 18.4715C99.8434 16.7981 99.8662 14.8071 98.2367 13.1438C95.4812 10.3312 92.7511 7.59927 90.4435 5.29074C89.2062 4.05583 87.9335 2.82344 86.7013 1.63389L86.1801 1.12984C85.5025 0.441182 84.5855 0.0376746 83.6181 0.00250742C82.6507 -0.0326598 81.7066 0.303193 80.9804 0.940825C79.523 2.20094 79.3585 4.24736 80.5832 5.92835C80.7706 6.18118 80.9779 6.41882 81.2031 6.63906L82.5871 8.03023C83.918 9.37099 85.2919 10.7546 86.6734 12.1029H84.419C80.2357 12.1029 76.0549 12.1029 71.8766 12.1029C71.2173 12.1038 70.5624 12.2084 69.9359 12.4129C69.2056 12.6416 68.5687 13.0986 68.1198 13.7163C67.6708 14.3339 67.4338 15.0793 67.4437 15.8417C67.4537 16.6042 67.7101 17.3431 68.175 17.949C68.6398 18.5548 69.2884 18.9952 70.0245 19.2049V19.2125Z" fill="#74C84D"/>
            </g>
            <defs>
            <clipPath id="clip0_1789_78403">
            <rect width="105" height="133" fill="white"/>
            </clipPath>
            </defs>
    </svg>